<svg xmlns="http://www.w3.org/2000/svg">
<defs>
<font id="UTMAmericanSans" horiz-adv-x="1462" >
  <font-face 
    font-family="UTM American Sans"
    font-weight="400"
    font-stretch="normal"
    units-per-em="2048"
    panose-1="2 4 6 3 5 5 6 2 2 4"
    ascent="1602"
    descent="-446"
    x-height="1208"
    cap-height="1602"
    bbox="-145 -463 4942 2426"
    underline-thickness="109"
    underline-position="-143"
    unicode-range="U+0020-U+2026"
  />
<missing-glyph horiz-adv-x="5040" 
d="M3351 2045h10q37 -10 37 -52q0 -12 -32 -57h-28q0 24 28 54l2 10q-5 13 -10 15h-9q-8 0 -10 -19h-30q6 49 42 49zM2019 2016l29 -31q0 -16 -40 -30h-19l-59 12l-11 -12l-28 25q11 29 43 29h11l42 -11h2q10 0 30 18zM468 1980h142v-60h-94v-75h89v-59h-89v-129l-5 -5h-49
v323zM1155 1980h43l6 -5v-78h30v-52h-30v-188l-6 -5h-49v193h-25v52h25v78zM1621 1980h42l4 -5v-94h3q23 24 54 24h2q58 0 83 -71l2 -39v-143h-52v115q0 80 -42 80h-7q-43 0 -43 -86v-109h-51v323zM2200 1980h49l5 -5v-222q10 -51 45 -51q44 7 44 59v214l5 5h49v-216
q0 -85 -66 -112q-15 -8 -35 -8q-47 0 -82 55q-14 24 -14 57v224zM2435 1980h159v-60h-56v-268h-53v268h-55v55zM2621 1980h71q7 -4 83 -251h2l80 251h73v-328h-54v242h-2l-74 -242h-44q-4 0 -58 182l-19 60h-3v-242h-55v328zM3760 1980h52v-328h-45l-5 5v11l3 2l-3 14
q-29 -40 -78 -40q-67 0 -100 91l-5 39v3q0 94 92 125l23 3q35 0 63 -32h3v107zM2057 1928h36l4 -6v-49h-45v-221h-48v23q-23 -31 -59 -31q-89 14 -89 97v156h51v-104q0 -79 26 -86l18 -5h6q26 0 39 36l3 26v133h53v25zM3476 1928v-55h-31v-221h-47v25h-2q-15 -33 -57 -33
q-68 0 -86 78l-3 29v146h52v-120q0 -50 19 -68l21 -7h9q42 0 42 69v126h27q4 0 4 28l3 3h49zM758 1905q68 0 103 -77q9 -18 12 -54q0 -88 -90 -127l-32 -3q-63 0 -101 73q-12 22 -12 52v10q0 94 101 126h19zM1011 1905h3q74 0 83 -101v-152h-51v119q0 76 -42 76h-5
q-44 0 -44 -76v-119h-52v245h46v-21q30 29 62 29zM1466 1905h7q72 0 105 -89h-60q-16 31 -42 31h-17q-53 -14 -53 -61l-3 -15q12 -69 61 -69h9q22 0 47 27h40l2 3h3l2 -3l2 3l3 -3l2 3l2 -7q-33 -81 -110 -81q-76 0 -110 94l-4 36v3q0 85 77 120q15 8 37 8zM3141 1905h2

<glyph glyph-name=".notdef" horiz-adv-x="5040" 
d="M3351 2045h10q37 -10 37 -52q0 -12 -32 -57h-28q0 24 28 54l2 10q-5 13 -10 15h-9q-8 0 -10 -19h-30q6 49 42 49zM2019 2016l29 -31q0 -16 -40 -30h-19l-59 12l-11 -12l-28 25q11 29 43 29h11l42 -11h2q10 0 30 18zM468 1980h142v-60h-94v-75h89v-59h-89v-129l-5 -5h-49
v323zM1155 1980h43l6 -5v-78h30v-52h-30v-188l-6 -5h-49v193h-25v52h25v78zM1621 1980h42l4 -5v-94h3q23 24 54 24h2q58 0 83 -71l2 -39v-143h-52v115q0 80 -42 80h-7q-43 0 -43 -86v-109h-51v323zM2200 1980h49l5 -5v-222q10 -51 45 -51q44 7 44 59v214l5 5h49v-216
q0 -85 -66 -112q-15 -8 -35 -8q-47 0 -82 55q-14 24 -14 57v224zM2435 1980h159v-60h-56v-268h-53v268h-55v55zM2621 1980h71q7 -4 83 -251h2l80 251h73v-328h-54v242h-2l-74 -242h-44q-4 0 -58 182l-19 60h-3v-242h-55v328zM3760 1980h52v-328h-45l-5 5v11l3 2l-3 14
q-29 -40 -78 -40q-67 0 -100 91l-5 39v3q0 94 92 125l23 3q35 0 63 -32h3v107zM2057 1928h36l4 -6v-49h-45v-221h-48v23q-23 -31 -59 -31q-89 14 -89 97v156h51v-104q0 -79 26 -86l18 -5h6q26 0 39 36l3 26v133h53v25zM3476 1928v-55h-31v-221h-47v25h-2q-15 -33 -57 -33
q-68 0 -86 78l-3 29v146h52v-120q0 -50 19 -68l21 -7h9q42 0 42 69v126h27q4 0 4 28l3 3h49zM758 1905q68 0 103 -77q9 -18 12 -54q0 -88 -90 -127l-32 -3q-63 0 -101 73q-12 22 -12 52v10q0 94 101 126h19zM1011 1905h3q74 0 83 -101v-152h-51v119q0 76 -42 76h-5
q-44 0 -44 -76v-119h-52v245h46v-21q30 29 62 29zM1466 1905h7q72 0 105 -89h-60q-16 31 -42 31h-17q-53 -14 -53 -61l-3 -15q12 -69 61 -69h9q22 0 47 27h40l2 3h3l2 -3l2 3l3 -3l2 3l2 -7q-33 -81 -110 -81q-76 0 -110 94l-4 36v3q0 85 77 120q15 8 37 8zM3141 1905h2
q49 0 70 -60v-14h-52q0 16 -16 16h-4q-14 0 -19 -13v-13q0 -9 68 -35q30 -19 30 -59q0 -58 -61 -80l-23 -3q-76 12 -76 83h54q0 -20 27 -25h4q19 0 24 23q0 22 -68 44q-34 27 -34 59q0 66 74 77zM4203 1905q55 0 77 -63q7 -18 7 -65v-125h-52v112q0 83 -40 83h-11
q-33 0 -40 -54v-141h-52v5h-2l2 2v238h47v-21q25 29 64 29zM4432 1905h5q40 0 69 -40v18l-3 3l3 11h47v-208q0 -97 -85 -132l-33 -4h-7q-70 0 -104 80h59q24 -22 45 -23h13q22 0 43 22q15 13 22 52h-3q-32 -40 -73 -40q-57 0 -96 70q-10 18 -14 63q0 88 87 125zM3851 1897
h53v-136q6 -59 40 -59h7q46 0 46 93v102h51v-245h-47l-3 10h3l-3 3v5l3 2v3h-4q0 -23 -57 -31h-3q-59 0 -84 75l-2 85v93zM690 1771q10 -69 63 -69h7q59 14 59 65v15q-13 65 -59 65h-5q-58 0 -65 -76zM3630 1774q13 -72 61 -72h5q58 0 66 75q0 49 -51 70h-22q-37 0 -56 -57z
M4374 1774q8 -72 65 -72h5q59 12 59 72q0 61 -59 73h-14q-56 -16 -56 -62v-11zM3928 1620h52v-57h-52v57zM1054 1402q43 -11 43 -49v-4q0 -17 -32 -60h-28q0 25 31 57v7q0 12 -7 15h-12q-10 -4 -10 -19h-28v6q0 32 33 44zM3349 1339q92 0 138 -99h-60q-37 42 -80 42
q-55 0 -87 -68q-10 -22 -10 -47q0 -78 81 -110l18 -1q36 0 75 39h61q-44 -97 -138 -97q-93 0 -141 112q-10 31 -10 62q0 97 90 152q29 15 63 15zM3664 1339q57 0 103 -47q46 -51 46 -115v-20q0 -89 -91 -146q-33 -13 -63 -13q-89 0 -138 101q-13 33 -13 60v18q0 98 98 151
q29 11 58 11zM2261 1337h2l47 -11h3q11 0 26 11l18 -36q-18 -19 -35 -19h-3l-54 10l-20 -7l-20 36q18 16 36 16zM716 1334h19q118 0 129 -26q25 -26 25 -62q-10 -57 -30 -57v-6q47 -23 47 -66v-18q0 -63 -69 -88l-54 -5h-67v328zM2550 1334h53v-217q6 -61 45 -61q29 0 44 39
l3 30v203l4 6h45l5 -6v-171q0 -118 -40 -133q-24 -26 -64 -26q-55 0 -91 76l-4 54v206zM2805 1334h59q4 0 122 -237h4v237h50l4 -6v-322h-58q-29 48 -125 238h-3v-238h-53v328zM3101 1334h54v-328h-54v328zM3859 1334h8q155 0 174 -40q23 -11 47 -75l4 -36v-11l3 -2
q0 -94 -82 -149q-35 -15 -99 -15h-55v328zM4141 1334h153v-60h-103v-75h101v-57h-101v-74l4 -5h99v-57h-157v322zM3563 1175v-10q0 -76 79 -108l19 -1q68 0 96 86l3 20v15q0 61 -60 94q-12 8 -39 11q-66 0 -96 -83zM770 1274v-67h9q54 0 54 28l3 14q-11 25 -29 25h-37z
M3912 1274v-206l2 -3v-2q104 0 122 76l2 15v29q0 34 -32 68q-25 23 -78 23h-16zM1041 1259h5q38 0 71 -40v32h49v-245h-49v32q-36 -40 -80 -40q-75 0 -101 97l-5 36q0 89 85 125zM1314 1259h3q74 0 83 -102v-151h-51v128q0 67 -42 67h-10q-34 0 -39 -62v-133h-52v245h47v-21
q28 29 61 29zM1543 1259h5q45 0 71 -40v32h47v-219q0 -95 -104 -126h-16q-74 0 -108 82h59q26 -25 44 -25h14q52 0 64 77q-33 -42 -76 -42q-60 0 -101 81l-7 44v16q0 79 85 117zM1912 1259h2q43 0 61 -37h2q32 37 69 37h4q57 0 79 -55q8 -25 8 -45v-153h-52v138q0 44 -23 55
l-12 2h-15q-32 0 -36 -65v-130h-52v136q0 59 -43 59h-8q-32 0 -36 -57v-138h-54v245h50v-21h2q6 24 54 29zM2282 1259q47 0 75 -42v34h47v-245h-47v32q-36 -40 -78 -40q-74 0 -102 92l-6 41q0 90 85 125zM985 1117q0 -48 61 -61h4q45 0 62 46l3 15v22q-12 62 -57 62h-14
q-41 0 -59 -57v-27zM1487 1128q0 -48 43 -68l18 -4h5q47 0 63 57v23q-11 65 -58 65h-12q-50 0 -59 -73zM2225 1131v-14q15 -61 57 -61h14q58 12 58 64v11q0 45 -37 65l-18 5h-10q-64 -8 -64 -70zM770 1150v-82q0 -5 7 -5q77 0 77 45q0 34 -47 42h-37zM2966 753l24 -28
l-51 -55q-18 12 -27 26zM1524 727l85 -54q0 -15 -21 -42l-87 54q18 41 23 42zM2850 693h38l55 -60h-54l-21 26l-23 -26h-54q54 60 59 60zM3422 693h40l56 -60h-54l-24 26h-1q0 -5 -19 -26h-54zM622 685h52q8 -4 47 -137l34 -110q9 8 34 100l48 147h54v-2l-112 -326h-44z
M1159 685h51v-54h-51v54zM1354 685h46l6 -5v-323h-52v328zM2317 685h45l4 -5v-78h31v-52h-31v-193h-53v193h-26v52h26v78zM2425 685h52v-98h2q23 23 54 23h3q57 0 81 -71l3 -38v-144h-52v115q0 81 -39 81h-10q-42 0 -42 -87v-109h-52v328zM2664 685h52v-54h-52v54zM3028 685
h44l6 -5v-78h29v-52h-29v-193h-54v193h-27v52h27v78zM3234 685h52v-328h-52v328zM3957 685h52v-328h-52v328zM4316 685h51v-54h-51v54zM1555 610h5q83 0 110 -102l3 -23v-11q0 -83 -85 -120l-35 -5q-76 0 -111 97l-4 32q0 97 93 130zM1811 610h4q53 0 78 -60q7 -25 7 -81
v-112h-54v146q-7 50 -37 50h-10q-38 0 -42 -57v-139h-54v245h49v-21q26 29 59 29zM2046 610h4q45 0 63 -39h3v31h49v-206q0 -102 -89 -135l-28 -3h-5q-73 0 -106 81h52l37 -20l15 -3h14q50 0 61 72q-33 -39 -73 -39q-62 0 -98 76q-11 23 -12 60q0 85 86 123zM2866 610h2
q82 0 111 -104l2 -25l-2 -27h-172q15 -45 45 -45l14 -3q29 0 49 22h57v-3q-35 -76 -108 -76q-77 0 -111 97l-1 28v8q0 49 32 89q34 39 82 39zM3429 610h5q41 0 70 -39h2v31h47v-245h-47v31h-2q-35 -39 -77 -39q-71 0 -101 89l-5 36v14q0 86 84 120zM3711 610h7
q88 0 107 -128l-2 -1v-15q0 -65 -66 -106q-21 -11 -46 -11q-34 0 -64 32v-99l-5 -5h-49v325h49v-28q31 36 69 36zM4151 610q44 0 75 -39v31h49v-245h-49v31q-35 -39 -77 -39q-92 0 -108 132q0 84 73 121q15 8 37 8zM922 602h50v-136q3 -60 42 -60h5q44 0 44 87v109h52v-245
h-47v24h-5q0 -23 -56 -32h-3q-55 0 -82 68q-4 35 -4 99v81zM1159 602h51v-245h-51v245zM2664 602h52v-245h-52v245zM4316 602h51v-245h-51v245zM1492 488v-16q13 -66 59 -66h4q59 0 66 76q-13 71 -59 71h-11q-59 -16 -59 -65zM1987 472q15 -66 59 -66h11q48 0 59 75v1
q-13 71 -59 71h-14q-39 0 -56 -57v-24zM2805 506h122v2q-16 45 -59 45h-7q-35 0 -56 -47zM3373 474q13 -68 61 -68h5q52 0 65 63v12q-10 72 -57 72h-16q-56 -14 -56 -63zM3642 478q12 -72 61 -72h3q50 0 65 60v22q0 43 -49 65h-22q-47 0 -58 -72v-3zM4095 472q10 -66 66 -66
q43 0 61 48l2 15v16q0 54 -52 68h-18q-42 0 -59 -60v-21zM3416 321h51v-52h-51v52zM4137 321h51v-52h-51v52zM2733 133h4q35 0 43 -50v-2q0 -16 -24 -41l-10 -17h-28q0 25 28 56l3 2v2q-3 19 -9 19h-10q-8 0 -9 -19h-30q6 50 42 50zM1546 116l52 -60l-26 -19l-52 52zM352 79
h4q75 -48 85 -60l-20 -37q-88 49 -88 58zM3490 79l86 -58l-18 -39q-10 0 -91 55q15 36 23 42zM4578 76l19 -42l-91 -52l-20 39l92 58v-3zM1204 53h51v-19l5 -5h14v-36h-14l-5 -5v-279h-46v31q-34 -40 -81 -40q-72 0 -102 105l-3 26q0 102 101 131h14q33 0 66 -33v59l-6 5
h-43v36h49v24zM1480 45h40l56 -61h-53l-23 27l-23 -27h-53zM2641 45h33q12 0 63 -61h-54l-23 27q-19 -21 -19 -27h-58v4zM49 37h160v-60h-56v-268h-50l-4 5v245l2 3v2l-2 2l2 3l-2 2l2 3l-2 3h-54v54zM699 37h47v-73l2 -2l-2 -3v-3l2 -2l-2 -3v-3l2 -2v-2l-2 -3l2 -3h3
q17 24 51 24h3q53 0 77 -58q7 -17 7 -42v-153h-52v127q0 68 -40 68h-8q-43 0 -43 -86v-109h-52v322zM1297 37h47l5 -6v-49h-52v55zM1987 37h52v-198l70 115h62l-78 -118l90 -125v-2h-70q-10 22 -74 115v-115h-52v328zM2271 37v-99q24 24 53 24q57 0 80 -56q10 -19 10 -77
v-120h-54v133q0 62 -41 62h-11q-31 0 -37 -55v-140h-53v314l-1 3v3l1 2l-1 3l1 3h53zM2458 37h51v-55h-51v55zM3148 37h51v-108q27 33 68 33h3q75 0 105 -94l5 -37q0 -75 -64 -120q-30 -11 -49 -11q-41 0 -72 40v-31h-47v328zM4275 37h52v-99h2q23 24 54 24h3q60 0 82 -74
l2 -41v-138h-52v111q0 82 -32 82l-10 2h-12q-37 0 -37 -80v-115h-52v328zM329 -38h3v-58h-5q-42 0 -42 -57v-138h-53v245h47v-21q18 29 50 29zM564 -38q71 0 86 -87v-166h-51v136q-6 59 -41 59h-6q-45 0 -45 -84v-111h-52v245h50v-21q25 29 59 29zM1504 -38q72 0 105 -94
l5 -39q-2 -24 -7 -24h-169q17 -47 62 -47q24 0 48 21h57q-33 -79 -108 -79q-82 0 -113 105v37q0 81 89 117zM2657 -38h5q77 0 107 -97l3 -26v-21l-3 -13h-170q18 -47 53 -47h12q21 0 42 21h59q-34 -79 -105 -79q-84 0 -115 102l-2 29q0 93 91 128zM2915 -38h4q54 0 78 -60
q7 -25 7 -82v-111h-54v138q0 48 -35 57h-11q-38 0 -43 -57v-138h-54v245h50v-21q25 29 58 29zM3508 -38h6q40 0 70 -40h2v32h47v-245h-47v31h-2q-34 -40 -78 -40q-71 0 -101 90l-4 37v12q0 82 77 117q11 6 30 6zM3781 -38h4q62 0 82 -78l3 -84v-91h-54v138q0 48 -38 57h-9
q-38 0 -42 -52v-143h-54v245h49v-21q26 29 59 29zM4133 -38h1q74 0 104 -93l4 -40q0 -88 -84 -126l-25 -3q-41 0 -68 34v-106h-52v326h47v-29q30 37 73 37zM4714 -38h5q34 0 63 -37q27 37 69 37h6q56 0 79 -66l6 -51v-136h-52v122q0 73 -39 73h-7q-35 0 -41 -50v-140l-5 -5
h-48v140q0 42 -31 55h-17q-40 0 -40 -77v-118h-51v245h47v-21q22 29 56 29zM359 -46h49l5 -6v-234l-5 -5h-49v245zM1297 -46h52v-245h-52v245zM1649 -46h52v-136q4 -60 43 -60h4q44 0 44 81v115h52v-245h-47v24h-5q-12 -33 -59 -33q-52 0 -79 63q-5 12 -5 34v157zM2458 -46
h51v-245h-51v245zM4515 -46h51v-245h-51v245zM1077 -169q0 -53 51 -73h12q54 0 66 66v10q0 53 -54 70h-17q-38 0 -58 -57v-16zM1438 -143h122q-18 47 -53 47h-7q-43 0 -62 -44v-3zM2599 -143h122q-21 47 -54 47h-7q-46 0 -61 -47zM3196 -158v-11q10 -73 61 -73h5q64 8 64 71
v5q0 45 -38 65l-18 5h-14q-60 -14 -60 -62zM3452 -173q14 -69 62 -69h11q41 0 59 60v13q-8 73 -56 73h-17q-47 0 -59 -73v-4zM4062 -158v-22q0 -47 59 -62h9q50 0 61 76q-13 70 -58 70h-15q-56 -17 -56 -62z" />
    <glyph glyph-name=".null" horiz-adv-x="0" 
 />
    <glyph glyph-name="nonmarkingreturn" horiz-adv-x="571" 
 />
    <glyph glyph-name="space" unicode=" " horiz-adv-x="620" 
 />
    <glyph glyph-name="exclam" unicode="!" horiz-adv-x="462" 
d="M389 1618l-82 -1163q-2 -4 -4 -4h-227q-4 0 -4 4l-72 1163q0 4 4 4h381q4 0 4 -4zM367 180q0 -88 -48.5 -145.5t-134.5 -54.5q-86 0 -134 57t-48 143t49 143.5t133 57.5q84 -2 133.5 -58.5t49.5 -142.5z" />
    <glyph glyph-name="quotedbl" unicode="&#x22;" horiz-adv-x="690" 
d="M621 1602l-267 -457h-147l151 457h263zM293 1602l-146 -457h-147l31 457h262z" />
    <glyph glyph-name="numbersign" unicode="#" horiz-adv-x="1013" 
d="M1001 1057l-40 -158h-125l-68 -264h123l-41 -158h-125l-80 -309h-164l82 309h-272l-80 -309h-166l80 307l-125 2l43 158h123l72 262h-129l41 158h129l79 307h166l-82 -307h273l82 307h166l-84 -305h122zM674 897h-273l-67 -262h270z" />
    <glyph glyph-name="dollar" unicode="$" horiz-adv-x="956" 
d="M913 1157q-163 86 -272 86q-61 0 -109 -29q-55 -32 -55 -90q0 -59 64 -110l176 -135q102 -84 153 -160q66 -96 66 -223q0 -197 -139 -351q-111 -120 -240 -157v-195h-115l2 184q-36 -4 -75 -4q-164 0 -369 66v428q53 -51 144.5 -87t170.5 -36q72 0 115 31q55 39 55 100
q0 68 -59 121q-39 39 -131 101.5t-131 97.5q-152 135 -152 340q0 120 56 227q108 209 374 254v190h115v-172q152 6 356 -53v-424zM444 1616zM442 1616zM444 -23z" />
    <glyph glyph-name="percent" unicode="%" horiz-adv-x="1409" 
d="M674 1198q0 -184 -47 -283q-80 -163 -297 -163v0q-178 0 -267 135q-63 98 -63 297q0 166 37 256q78 194 303 194q160 0 247 -105.5t87 -330.5zM1290 1599l-964 -1595h-207l966 1595h205zM1399 412q0 -185 -47 -281q-80 -166 -297 -166q-178 0 -267 135q-65 101 -65 299
q0 164 37 256q76 195 305 195q160 0 247 -105.5t87 -332.5zM428 1192q0 256 -94 256q-60 0 -80 -107q-10 -57 -10 -147q0 -117 18 -182q23 -74 76 -74v0q43 0 66.5 55.5t23.5 198.5zM1153 408q0 254 -94 254q-15 0 -19 -3q-53 -16 -67 -143q-4 -45 -4 -106q0 -119 18 -183
q23 -73 76 -73v0q43 0 66.5 55t23.5 199z" />
    <glyph glyph-name="ampersand" unicode="&#x26;" horiz-adv-x="1282" 
d="M1286 590h-100q-33 -299 -223 -457q-166 -137 -400 -137q-178 0 -325 80q-154 82 -205 211q-33 80 -33 178q0 287 248 397q-94 35 -144 135q-43 86 -43 195q0 61 13 111q39 135 159 215q132 88 330 88q133 0 291 -41v-361q-129 62 -229 62q-78 0 -124 -34t-52 -81
q-11 -64 51 -115q65 -57 172 -57q47 0 100 12v-309q-96 27 -172 27q-186 0 -205 -140q-12 -88 51.5 -148.5t153.5 -60.5q160 0 223 175q56 151 35 397h410z" />
    <glyph glyph-name="quotesingle" unicode="'" horiz-adv-x="382" 
d="M313 1602l-166 -457h-147l51 457h262z" />
    <glyph glyph-name="parenleft" unicode="(" horiz-adv-x="385" 
d="M350 -174h-217q-43 33 -86 115q-47 90 -47 159v1401q0 68 47 160q43 82 86 115h217q-69 -76 -69 -273v-1405q0 -196 69 -272z" />
    <glyph glyph-name="parenright" unicode=")" horiz-adv-x="436" 
d="M350 100q0 -69 -45 -159q-43 -82 -86 -115h-219q70 76 70 272v1405q0 197 -70 273h219q43 -33 86 -115q45 -92 45 -160v-1401z" />
    <glyph glyph-name="asterisk" unicode="*" horiz-adv-x="847" 
d="M831 1276l-206 -119l202 -119l-104 -182l-203 121v-240h-211v238l-207 -119l-102 182l205 119l-205 119l102 182l207 -119v238h211v-238l207 119z" />
    <glyph glyph-name="plus" unicode="+" horiz-adv-x="804" 
d="M803 698h-297v-299h-207v299h-299v205h299v299h207v-299h297v-205z" />
    <glyph glyph-name="comma" unicode="," horiz-adv-x="415" 
d="M346 369l-174 -545h-225l53 545h346z" />
    <glyph glyph-name="hyphen" unicode="-" horiz-adv-x="772" 
d="M688 698h-688v205h688v-205z" />
    <glyph glyph-name="hyphen" unicode="&#x2010;" horiz-adv-x="772" 
d="M688 698h-688v205h688v-205z" />
    <glyph glyph-name="period" unicode="." horiz-adv-x="342" 
d="M346 0h-346v367h346v-367z" />
    <glyph glyph-name="slash" unicode="/" horiz-adv-x="694" 
d="M700 1784l-569 -1968h-131l573 1968h127z" />
    <glyph glyph-name="zero" unicode="0" horiz-adv-x="1314" 
d="M1243 809q0 -346 -88 -528q-145 -308 -547 -308q-332 0 -483 250q-125 205 -125 559q0 381 119 584q153 262 510 262q614 0 614 -819zM791 799q0 479 -175 479q-165 0 -165 -473q0 -479 174 -479v0q166 0 166 473z" />
    <glyph glyph-name="one" unicode="1" horiz-adv-x="542" 
d="M457 0h-399v1153h-78q53 121 70 166q43 133 45 283h362v-1602z" />
    <glyph glyph-name="two" unicode="2" horiz-adv-x="1046" 
d="M983 0h-917l-66 291q242 237 455 516q96 125 96 252q0 188 -205 188q-174 0 -321 -127v398q186 96 395 96q239 0 385 -127q158 -139 158 -346q0 -193 -142 -404q-112 -168 -125 -184q-78 -109 -151 -182h438v-371z" />
    <glyph glyph-name="three" unicode="3" horiz-adv-x="985" 
d="M866 1307q15 -43 15 -95q0 -116 -60 -219q-63 -108 -164 -145q134 -41 203 -141q64 -93 64 -215q0 -123 -62 -238q-145 -268 -524 -268q-160 0 -338 49v407q162 -86 291 -86q98 0 153.5 48.5t57.5 123.5q4 158 -215 158q-76 0 -164 -22v323q55 -14 106 -14q107 0 170 57
q60 51 50 119q-7 47 -58 82t-133 35q-113 0 -248 -68l-2 377q156 41 318 41q454 0 540 -309z" />
    <glyph glyph-name="four" unicode="4" horiz-adv-x="1275" 
d="M1217 309h-187v-309h-395v309h-557l-78 314l541 979h489v-947h187v-346zM635 655v459l-225 -459h225z" />
    <glyph glyph-name="five" unicode="5" horiz-adv-x="1071" 
d="M1008 575q0 -258 -160 -419q-178 -179 -508 -179q-154 0 -340 74v400q59 -54 157.5 -88.5t192.5 -34.5q230 0 230 194q0 193 -279 193q-145 0 -287 -45l-2 932h834v-359h-475v-207q51 6 98 6q285 0 430 -178q109 -131 109 -289z" />
    <glyph glyph-name="six" unicode="6" horiz-adv-x="1280" 
d="M1212 668q9 -52 9 -101q0 -254 -156 -422q-162 -176 -414 -172q-329 7 -501 248q-150 213 -150 559q0 285 121 504q194 350 618 344q179 -2 351 -55v-406q-195 121 -353 121q-268 0 -311 -287q117 91 311 91q183 0 310 -107q139 -113 165 -317zM801 528q0 224 -166 224
q-78 0 -125 -54q-51 -59 -49 -170q2 -106 55 -168q49 -53 119 -53v0q166 0 166 221z" />
    <glyph glyph-name="seven" unicode="7" horiz-adv-x="1026" 
d="M983 1264l-444 -1264h-453l438 1231h-524v371h983v-338z" />
    <glyph glyph-name="eight" unicode="8" horiz-adv-x="1243" 
d="M1176 438q0 -235 -195 -360q-162 -105 -385 -105q-225 0 -393 107q-203 131 -203 366q0 119 65.5 226.5t182.5 161.5q-203 116 -203 354q0 172 115 291q143 149 430 149q284 0 432 -147q119 -119 117 -273q-4 -247 -211 -366q116 -56 182 -163.5t66 -240.5zM752 1155
q0 66 -47.5 112t-112.5 46q-66 0 -113 -46t-47 -112q0 -63 47 -110.5t113 -47.5v0q65 0 112.5 47.5t47.5 110.5zM768 477q0 74 -54.5 127t-129.5 53q-76 0 -130.5 -53t-54.5 -127q0 -76 54.5 -129t130.5 -53v0q75 0 129.5 53t54.5 129z" />
    <glyph glyph-name="nine" unicode="9" horiz-adv-x="1288" 
d="M1223 817q0 -282 -123 -506q-176 -321 -586 -321q-231 0 -442 108v367q102 -72 235 -119q111 -39 174 -39q113 0 197 68q96 78 121 229q-133 -104 -303 -104q-181 0 -320 114q-147 123 -174 318q-6 49 -6 100q0 252 159.5 426t413.5 170q332 -6 504 -250
q150 -215 150 -561zM762 1069q-2 109 -57 170q-50 53 -121 53v0q-166 0 -168 -221q0 -225 170 -225q76 0 126 56t50 167z" />
    <glyph glyph-name="colon" unicode=":" horiz-adv-x="430" 
d="M346 512h-346v367h346v-367zM346 0h-346v367h346v-367z" />
    <glyph glyph-name="semicolon" unicode=";" horiz-adv-x="466" 
d="M383 369l-174 -545h-225l53 545h346zM383 512h-346v367h346v-367z" />
    <glyph glyph-name="less" unicode="&#x3c;" horiz-adv-x="1021" 
d="M981 0l-981 485v242l981 481v-366l-684 -236l684 -235v-371z" />
    <glyph glyph-name="equal" unicode="=" horiz-adv-x="628" 
d="M604 791h-604v208h604v-208zM604 459h-604v209h604v-209z" />
    <glyph glyph-name="greater" unicode="&#x3e;" horiz-adv-x="958" 
d="M981 485l-981 -485v371l684 235l-684 236v366l981 -481v-242z" />
    <glyph glyph-name="question" unicode="?" horiz-adv-x="978" 
d="M940 1157q0 -176 -106 -328q-113 -157 -287 -206v-201h-326v418q158 4 232 86q61 65 61 164q0 84 -35 124q-53 60 -166 60q-168 0 -313 -113v365q180 98 383 98q238 0 397.5 -126t159.5 -341zM563 160q0 -86 -48 -143.5t-134 -57.5v0q-86 2 -134 58.5t-48 142.5t49 143
t133 57t133 -57t49 -143z" />
    <glyph glyph-name="at" unicode="@" horiz-adv-x="1499" 
d="M1447 801q-55 -254 -178 -451q-78 -125 -187 -190q-94 -60 -188 -60q-70 0 -115 35t-45 94q0 17 4 35l11 51q-95 -49 -185 -49q-114 0 -188 73t-74 193q0 29 6 60q27 168 160 276q127 103 281 103q73 0 137 -27q16 76 8 90q-29 47 -137 47q-158 0 -240 -82l62 275
q155 63 325 63q164 0 248 -67q100 -78 66 -240l-148 -678q-2 -10 -2 -18q0 -27 23 -27q49 0 94 66q59 90 102 213l72 225q31 143 31 258q0 457 -473 457q-607 0 -752 -723q-31 -150 -31 -268q0 -457 469 -459q80 0 160 14l2 -90q-82 -16 -182 -16q-543 4 -543 532
q0 129 31 285q80 391 303 604t563 213q545 0 545 -531q0 -129 -35 -286zM816 645q0 72 -74 72v0q-43 0 -78.5 -34t-35.5 -79q0 -72 76 -72q43 0 77.5 34t34.5 79z" />
    <glyph glyph-name="A" unicode="A" horiz-adv-x="1208" 
d="M1122 0h-424v285h-290v-285h-408v1087q0 226 155.5 382.5t395.5 154.5q244 -2 407.5 -166t163.5 -405v-1053zM698 647v397q0 68 -41 120.5t-106 52.5q-66 0 -104.5 -53.5t-38.5 -119.5v-397h290z" />
    <glyph glyph-name="B" unicode="B" horiz-adv-x="1075" 
d="M1008 459q8 -201 -150 -334q-149 -125 -354 -125h-504v1602h492q184 0 320 -124t146 -307q13 -219 -149 -364q188 -125 199 -348zM578 1096q-3 55 -41.5 95t-92.5 40h-43v-273h45q56 -2 94 39t38 99zM598 522q-4 53 -40 88t-83 35h-74v-260h80q51 0 86 41t31 96z" />
    <glyph glyph-name="C" unicode="C" horiz-adv-x="1114" 
d="M1059 49q-139 -76 -330 -76q-164 0 -307 60q-158 65 -256 192q-166 215 -166 563q0 248 88 435q94 194 279 303q172 102 374 102q162 0 306 -67v-414q-121 70 -248 70q-152 0 -246 -99q-107 -112 -109 -325q-2 -209 115 -320q100 -96 254 -96q143 0 246 82v-410z" />
    <glyph glyph-name="D" unicode="D" horiz-adv-x="1290" 
d="M1223 799q-2 -381 -179.5 -590t-506.5 -209h-537v1602h541q331 0 507.5 -211t174.5 -592zM799 801q0 200 -70 309t-203 109h-125v-838h125q273 0 273 420z" />
    <glyph glyph-name="E" unicode="E" horiz-adv-x="966" 
d="M885 0h-885v1602h877v-388h-476v-227h457v-373h-457v-231h484v-383z" />
    <glyph glyph-name="F" unicode="F" horiz-adv-x="961" 
d="M872 1212h-471v-370h408v-381h-408v-461h-401v1602h872v-390z" />
    <glyph glyph-name="G" unicode="G" horiz-adv-x="1296" 
d="M1211 106q-240 -137 -547 -131q-299 7 -484 250q-174 234 -180 588q-6 326 158 543q147 194 387 248q98 22 201 22q170 0 399 -67v-429q-182 160 -385 140q-145 -15 -234 -125q-98 -121 -102 -336q-2 -170 49 -291q62 -143 189 -164q69 -12 163 29v186h-208v328h594v-791
z" />
    <glyph glyph-name="H" unicode="H" horiz-adv-x="1189" 
d="M1104 0h-404v410h-299v-410h-401v1602h401v-801h299v801h404v-1602z" />
    <glyph glyph-name="I" unicode="I" horiz-adv-x="485" 
d="M399 0h-399v1602h399v-1602z" />
    <glyph glyph-name="J" unicode="J" horiz-adv-x="946" 
d="M864 508q0 -248 -168 -389q-151 -127 -379 -127q-170 0 -317 76v393q96 -94 254 -94q88 0 141 39q62 43 62 126v1070h407v-1094z" />
    <glyph glyph-name="K" unicode="K" horiz-adv-x="1181" 
d="M1133 0h-467l-265 586v-586h-401v1602h401v-615l273 615h405l-368 -787z" />
    <glyph glyph-name="L" unicode="L" horiz-adv-x="901" 
d="M883 0h-883v1602h401v-1213h482v-389z" />
    <glyph glyph-name="M" unicode="M" horiz-adv-x="1761" 
d="M1675 0h-409v1059l-230 -1059h-399l-229 1059v-1059h-408v1602h670l170 -918l198 918h637v-1602z" />
    <glyph glyph-name="N" unicode="N" horiz-adv-x="1306" 
d="M1221 0h-447l-366 872v-872h-408v1602h500l297 -764v764h424v-1602z" />
    <glyph glyph-name="O" unicode="O" 
d="M1393 801q-2 -400 -172 -611q-176 -217 -525 -217q-684 4 -696 828q-6 395 173 611t523 216q345 0 522 -216t175 -611zM971 801q2 432 -275 432q-135 0 -204.5 -112.5t-67.5 -319.5q4 -430 272 -432v0q271 -2 275 432z" />
    <glyph glyph-name="P" unicode="P" horiz-adv-x="1153" 
d="M1118 961q-4 -269 -158.5 -448t-386.5 -179h-172v-334h-401v1602h569q248 0 399.5 -183.5t149.5 -457.5zM717 952q0 115 -49 187q-56 82 -166 82h-101v-533h101q211 0 215 264z" />
    <glyph glyph-name="Q" unicode="Q" horiz-adv-x="1466" 
d="M1393 799q-2 -520 -289 -717q94 -16 141 -16q68 0 127 24v-319q-78 -33 -174 -33q-69 0 -204.5 29.5t-204.5 29.5q-99 0 -203 -30l2 213q-578 65 -588 819q-6 397 173 612t523 215q342 0 520.5 -216t176.5 -611zM971 799q0 432 -275 432q-135 0 -204.5 -112.5
t-67.5 -319.5q4 -430 272 -432v0q273 0 275 432z" />
    <glyph glyph-name="R" unicode="R" horiz-adv-x="1220" 
d="M1159 0h-454l-201 465h-103v-465h-401v1602h569q256 0 406 -144q153 -149 153 -407q0 -142 -65.5 -267t-171.5 -202zM709 1026q0 84 -47 139q-56 62 -162 62h-99v-398h99q205 0 209 197z" />
    <glyph glyph-name="S" unicode="S" horiz-adv-x="997" 
d="M913 1157q-163 86 -272 86q-61 0 -109 -29q-55 -32 -55 -90q0 -59 64 -110l176 -135q102 -84 153 -160q66 -96 66 -223q0 -197 -139 -351q-158 -172 -428 -172q-164 0 -369 66v428q53 -51 144.5 -87t170.5 -36q72 0 115 31q55 39 55 100q0 68 -59 121q-39 39 -131 101.5
t-131 97.5q-152 135 -152 340q0 120 56 227q127 242 467 264q182 12 378 -45v-424z" />
    <glyph glyph-name="T" unicode="T" horiz-adv-x="1052" 
d="M1016 1214h-318v-1214h-399v1214h-299v388h1016v-388z" />
    <glyph glyph-name="U" unicode="U" horiz-adv-x="1198" 
d="M1114 434q0 -219 -176 -348q-160 -115 -387 -113q-225 2 -379 117q-172 127 -172 342v1170h403v-1061q0 -156 158 -156q148 -2 148 160v1057h405v-1168z" />
    <glyph glyph-name="V" unicode="V" horiz-adv-x="1331" 
d="M1296 1602l-432 -1602h-473l-391 1602h436l199 -1043l192 1043h469z" />
    <glyph glyph-name="W" unicode="W" horiz-adv-x="1880" 
d="M1819 1602l-269 -1602h-503l-140 807l-133 -807h-518l-256 1602h408l116 -902l135 902h463l148 -881l123 881h426z" />
    <glyph glyph-name="X" unicode="X" horiz-adv-x="1388" 
d="M1325 1602l-369 -766l363 -836h-490l-165 483l-181 -483h-477l379 827l-385 775h483l185 -435l161 435h496z" />
    <glyph glyph-name="Y" unicode="Y" horiz-adv-x="1402" 
d="M1345 1602l-471 -1041v-561h-401v561l-471 1041h475l199 -588l215 588h454z" />
    <glyph glyph-name="Z" unicode="Z" horiz-adv-x="1150" 
d="M1098 1229l-582 -834h539v-395h-975l-80 350l588 858h-531v394h992z" />
    <glyph glyph-name="bracketleft" unicode="[" horiz-adv-x="481" 
d="M516 -356h-455q-22 0 -41.5 21.5t-19.5 43.5v2183q0 23 19.5 44.5t41.5 21.5h455v-148h-244q-18 0 -18 -24v-1970q0 -25 18 -25h244v-147z" />
    <glyph glyph-name="backslash" unicode="\" horiz-adv-x="716" 
d="M700 -164h-131l-569 1968h127z" />
    <glyph glyph-name="bracketright" unicode="]" horiz-adv-x="561" 
d="M514 -291q0 -22 -18.5 -43.5t-40.5 -21.5h-455v147h242q18 0 18 25v1970q0 24 -18 24h-242v148h455q22 0 40.5 -21.5t18.5 -44.5v-2183z" />
    <glyph glyph-name="asciicircum" unicode="^" horiz-adv-x="1110" 
d="M1108 1069h-338l-215 260l-217 -260h-338l444 533h222z" />
    <glyph glyph-name="underscore" unicode="_" horiz-adv-x="1252" 
d="M1216 -116h-1216v116h1216v-116z" />
    <glyph glyph-name="grave" unicode="`" horiz-adv-x="364" 
d="M332 1294h-170l-162 308h248z" />
    <glyph glyph-name="a" unicode="a" horiz-adv-x="1024" 
d="M934 0h-358v59q-103 -65 -209 -65q-146 0 -250 108.5t-117 272.5v0q-10 194 117 319q119 117 295 117q84 0 164 -31q0 99 -15 115q-41 51 -163 51q-199 0 -281 -94v313q158 70 356 70q197 0 318 -78q143 -92 143 -278v-879zM574 334v160q-9 28 -39.5 46.5t-65.5 16.5
q-53 -2 -90 -43t-37 -100q0 -60 37 -101t90 -43q82 -4 105 64z" />
    <glyph glyph-name="b" unicode="b" horiz-adv-x="1071" 
d="M1030 602v0q0 -260 -149 -436q-142 -168 -328 -168q-133 0 -203 76v-74h-350v1602h350v-449q74 49 168 59q25 2 49 2q201 0 333 -171t130 -441zM676 602q2 279 -166 279q-131 0 -160 -179v-194q27 -182 160 -184q164 -2 166 278z" />
    <glyph glyph-name="c" unicode="c" horiz-adv-x="860" 
d="M795 43q-103 -57 -246 -57q-275 0 -420 188q-125 160 -125 420q0 186 68 324q69 147 206 227q129 78 281 78q121 0 227 -52v-309q-90 53 -182 53q-106 0 -174 -73q-74 -84 -76 -244q0 -156 82 -240q72 -71 182 -71q103 0 177 59v-303z" />
    <glyph glyph-name="d" unicode="d" horiz-adv-x="1116" 
d="M1030 0h-344l-4 66q-70 -72 -201 -72q-186 0 -329 170q-150 178 -152 438v0q-2 270 131 441t334 171q25 0 47 -2q94 -10 170 -59v449h348v-1602zM682 508v194q-29 179 -160 179q-168 0 -166 -279q0 -280 166 -278q131 2 160 184z" />
    <glyph glyph-name="e" unicode="e" horiz-adv-x="1079" 
d="M1014 516h-653q0 -113 82 -174q73 -53 192 -53q197 0 330 117v-338q-174 -82 -371 -82q-256 0 -414 145q-186 174 -180 520q6 283 184 443q148 129 338 131v0q252 2 381 -178q115 -160 115 -433q0 -49 -4 -98zM680 760q-6 71 -53 114.5t-111 45.5q-61 0 -108 -44.5
t-54 -115.5h326z" />
    <glyph glyph-name="f" unicode="f" horiz-adv-x="733" 
d="M672 1356q-47 14 -82 14q-92 0 -92 -96v-66h127v-258h-127v-950h-351v950h-147v258h147v146q0 151 101 231q94 78 262 78q76 0 162 -16v-291z" />
    <glyph glyph-name="g" unicode="g" horiz-adv-x="1118" 
d="M1032 53q0 -252 -184 -393q-160 -123 -391 -123q-205 0 -346 94v353q55 -72 145 -114t182 -42q107 0 172 53q74 60 72 166v0v25q-109 -78 -225 -78q-219 0 -348 205q-111 176 -109 407q2 271 126 441t321 170q26 0 53 -3q127 -16 182 -75v69h350v-1155zM682 508v194
q-29 183 -160 183q-164 2 -166 -277q-2 -276 166 -276q131 0 160 176z" />
    <glyph glyph-name="h" unicode="h" horiz-adv-x="1042" 
d="M958 0h-352v786q0 64 -40 100t-91 34q-104 -2 -125 -129v-791h-350v1602h350v-451q17 27 90.5 52.5t159.5 25.5q150 0 244 -84q114 -105 114 -324v-821z" />
    <glyph glyph-name="i" unicode="i" horiz-adv-x="466" 
d="M385 1452q0 -92 -51 -151.5t-139 -59.5q-91 0 -142 59.5t-51 151.5q0 90 51 149.5t142 61.5v0q88 0 139 -60.5t51 -150.5zM369 0h-351v1208h351v-1208z" />
    <glyph glyph-name="j" unicode="j" horiz-adv-x="620" 
d="M541 1452q0 -90 -51.5 -150.5t-139.5 -60.5q-90 0 -141 59.5t-51 151.5q0 90 51 149.5t141 61.5q90 0 140.5 -60.5t50.5 -150.5zM528 119q-2 -250 -116 -410q-103 -139 -254 -166l-158 305q178 33 178 271v1089h350v-1089z" />
    <glyph glyph-name="k" unicode="k" horiz-adv-x="1005" 
d="M958 0h-407l-201 412v-412h-350v1602h350v-760l170 366h375l-283 -518z" />
    <glyph glyph-name="l" unicode="l" horiz-adv-x="436" 
d="M350 0h-350v1602h350v-1602z" />
    <glyph glyph-name="m" unicode="m" horiz-adv-x="1656" 
d="M1575 0h-354v784q0 68 -40 102t-96 29q-120 -6 -120 -137v-778h-359v784q0 66 -37 105q-32 33 -84 33q-49 2 -88 -33t-47 -103v-786h-350v1208h350v-73q19 32 81.5 53.5t137.5 21.5q207 0 314 -147q41 65 124 105t177 40q159 0 268 -90q123 -106 123 -301v-817z" />
    <glyph glyph-name="n" unicode="n" horiz-adv-x="1038" 
d="M956 0h-352v788q0 62 -38 98t-89 36q-108 0 -131 -134v-788h-346v1208h346v-78q19 33 86.5 56.5t149.5 21.5q155 -6 252 -84q122 -102 122 -313v-811z" />
    <glyph glyph-name="o" unicode="o" horiz-adv-x="1175" 
d="M1032 915q66 -137 66 -313q0 -258 -133 -424q-158 -194 -420 -194v0q-252 0 -412 196q-131 164 -131 422q0 178 66 313q69 144 202 226q127 78 275 78q151 0 278 -78q140 -80 209 -226zM747 598q0 143 -59 229q-55 80 -143 80q-84 0 -138.5 -84t-56.5 -225
q0 -135 55.5 -219t139.5 -84q86 0 145.5 83t56.5 220z" />
    <glyph glyph-name="p" unicode="p" horiz-adv-x="1107" 
d="M1030 623q2 -273 -132 -451t-335 -178q-22 0 -45 4v0q-98 10 -168 59v-503h-350v1654h350v-73q51 57 182 73q29 2 56 2q198 0 319 -160.5t123 -426.5zM676 606q0 279 -168 279q-131 0 -158 -185v-194q29 -178 158 -178q168 0 168 278z" />
    <glyph glyph-name="q" unicode="q" horiz-adv-x="1132" 
d="M1030 1208v-1654h-350v503q-72 -49 -168 -59v0q-22 -4 -45 -4q-201 0 -335 178t-132 451q2 266 123 426.5t317 160.5q29 0 58 -2q133 -16 182 -73v73h350zM680 506v194q-29 185 -160 185q-164 0 -166 -279q-2 -278 166 -278q131 0 160 178z" />
    <glyph glyph-name="r" unicode="r" horiz-adv-x="675" 
d="M623 879q-99 6 -172 -37q-64 -35 -86 -103q-15 -47 -15 -139v-600h-350v1208h350v-121q37 52 116 88.5t157 38.5v-335z" />
    <glyph glyph-name="s" unicode="s" horiz-adv-x="788" 
d="M700 879q-151 73 -237 61q-96 -14 -96 -88q0 -43 49 -82l135 -102q76 -64 117 -121q49 -74 49 -170q0 -148 -107 -262q-121 -131 -327 -131q-125 0 -283 49v323q39 -37 110.5 -64.5t135.5 -27.5q53 0 84 23q43 28 43 75q0 50 -47 93q-70 47 -201 149q-117 101 -117 258
q0 90 43 172q99 183 359 199q139 8 290 -35v-319z" />
    <glyph glyph-name="t" unicode="t" horiz-adv-x="710" 
d="M643 8q-86 -16 -164 -16q-166 0 -262 81t-96 234v637h-121v264h121v248l354 127v-375h150v-264h-150v-555q0 -98 86 -98q33 0 82 14v-297z" />
    <glyph glyph-name="u" unicode="u" horiz-adv-x="1046" 
d="M961 0h-349v76q-20 -35 -91.5 -59.5t-155.5 -22.5q-144 2 -246 98q-119 111 -119 293v823h352v-776q0 -65 39 -105t90 -40q107 0 129 143v778h351v-1208z" />
    <glyph glyph-name="v" unicode="v" horiz-adv-x="1101" 
d="M1044 1208l-294 -1208h-455l-295 1208h373l149 -786l152 786h370z" />
    <glyph glyph-name="w" unicode="w" horiz-adv-x="1564" 
d="M1501 1208l-198 -1208h-447l-100 715l-109 -715h-446l-201 1208h360l89 -727l108 727h389l107 -727l88 727h360z" />
    <glyph glyph-name="x" unicode="x" horiz-adv-x="1103" 
d="M1044 1208l-294 -559l288 -649h-385l-129 389l-141 -389h-379l305 633l-309 575h383l143 -354l127 354h391z" />
    <glyph glyph-name="y" unicode="y" horiz-adv-x="1044" 
d="M963 -45q0 -201 -170 -307q-146 -92 -369 -92q-227 0 -381 86v321q150 -127 363 -127q206 0 206 137v99q-18 -31 -78.5 -52.5t-136.5 -21.5q-159 0 -266 94q-131 117 -131 354v762h356v-774q0 -63 39 -104t90 -41q105 0 127 143v776h351v-1253z" />
    <glyph glyph-name="z" unicode="z" horiz-adv-x="901" 
d="M829 918l-405 -619h393v-299h-786l-33 287l412 608h-381v313h784z" />
    <glyph glyph-name="braceleft" unicode="{" horiz-adv-x="585" 
d="M629 -365h-103q-200 0 -270 66t-66 262l11 629q2 137 -201 137v141q203 0 201 150l-11 616q-4 166 72 246t264 80h103v-111h-90q-52 0 -89.5 -31.5t-39.5 -76.5l-11 -729q0 -76 -68.5 -134.5t-170.5 -74.5q110 -12 174.5 -68.5t64.5 -134.5l11 -766q0 -39 43 -63.5
t94 -24.5h82v-113z" />
    <glyph glyph-name="bar" unicode="|" horiz-adv-x="147" 
d="M102 0h-102v1599h102v-1599z" />
    <glyph glyph-name="braceright" unicode="}" horiz-adv-x="636" 
d="M627 729q-201 0 -199 -137l10 -629q4 -196 -66.5 -262t-269.5 -66h-102v113h82q51 0 93 24.5t42 63.5l12 766q0 78 63.5 134.5t176.5 68.5q-102 16 -171 74.5t-69 134.5l-12 729q0 45 -38 76.5t-91 31.5h-88v111h102q187 0 267 -82q73 -78 69 -244l-10 -616
q-4 -150 199 -150v-141z" />
    <glyph glyph-name="asciitilde" unicode="~" horiz-adv-x="684" 
d="M643 1602q0 -216 -123 -236q-47 -8 -225 43q-123 35 -123 -45h-172q0 213 147 213q48 0 142 -25.5t125 -25.5q67 0 65 76h164z" />
    <glyph glyph-name="dieresis" unicode="&#xa8;" horiz-adv-x="1024" 
 />
    <glyph glyph-name="copyright" unicode="&#xa9;" horiz-adv-x="1181" 
d="M1157 940q-4 -690 -579 -686v0q-568 2 -578 686q-4 328 144.5 507t433.5 179q284 0 432.5 -179t146.5 -507zM930 940q2 266 -87 411.5t-263 145.5q-176 0 -266.5 -145.5t-86.5 -411.5q7 -555 353 -557q348 -2 350 557zM782 604q-61 -35 -147 -35q-166 0 -252 113
q-76 96 -76 252q0 113 39 194q88 183 293 183q74 0 137 -29v-186q-53 30 -110 30q-158 0 -160 -188q0 -94 51 -145q45 -43 115 -43q65 0 110 36v-182z" />
    <glyph glyph-name="registered" unicode="&#xae;" horiz-adv-x="1183" 
d="M1159 942q-4 -690 -579 -688v0q-568 4 -578 688q-4 328 144.5 507t433.5 179q284 0 432.5 -179t146.5 -507zM934 942q2 266 -88 411.5t-264 145.5t-265.5 -145.5t-87.5 -411.5q5 -557 353 -559q350 -2 352 559zM858 582h-205l-90 209h-45v-209h-180v718h256
q115 0 182.5 -65.5t67.5 -181.5q0 -133 -107 -209zM655 1042q2 91 -94 91h-43v-181h43q92 0 94 90z" />
    <glyph glyph-name="acute" unicode="&#xb4;" horiz-adv-x="1024" 
 />
    <glyph glyph-name="paragraph" unicode="&#xb6;" horiz-adv-x="1024" 
d="M929 1435v-70h-127v-1365h-82v1365h-166v-1365h-84v738q-174 8 -275.5 102.5t-101.5 245.5q0 157 107.5 253t285.5 96h443z" />
    <glyph glyph-name="onequarter" unicode="&#xbc;" horiz-adv-x="1298" 
 />
    <glyph glyph-name="onehalf" unicode="&#xbd;" horiz-adv-x="1320" 
 />
    <glyph glyph-name="threequarters" unicode="&#xbe;" horiz-adv-x="1288" 
 />
    <glyph glyph-name="Agrave" unicode="&#xc0;" horiz-adv-x="1204" 
d="M1122 0h-424v285h-290v-285h-408v1087q0 226 155.5 382.5t395.5 154.5q244 -2 407.5 -166t163.5 -405v-1053zM698 647v397q0 68 -41 120.5t-106 52.5q-66 0 -104.5 -53.5t-38.5 -119.5v-397h290zM705 1679h-170l-162 308h248z" />
    <glyph glyph-name="Aacute" unicode="&#xc1;" horiz-adv-x="1204" 
d="M1122 0h-424v285h-290v-285h-408v1087q0 226 155.5 382.5t395.5 154.5q244 -2 407.5 -166t163.5 -405v-1053zM698 647v397q0 68 -41 120.5t-106 52.5q-66 0 -104.5 -53.5t-38.5 -119.5v-397h290zM764 1987l-162 -308h-170l84 308h248z" />
    <glyph glyph-name="uni1EA2" unicode="&#x1ea2;" horiz-adv-x="1206" 
d="M1122 0h-424v285h-290v-285h-408v1087q0 226 155.5 382.5t395.5 154.5q244 -2 407.5 -166t163.5 -405v-1053zM698 647v397q0 68 -41 120.5t-106 52.5q-66 0 -104.5 -53.5t-38.5 -119.5v-397h290zM404 2111q58 25 123 25q94 0 157 -50t63 -135q0 -70 -42 -130
q-45 -62 -113 -82v-40h-129v126q62 2 91 34q25 26 25 65q0 34 -14 50q-21 23 -66 23q-50 0 -95 -25v139z" />
    <glyph glyph-name="Atilde" unicode="&#xc3;" horiz-adv-x="1206" 
d="M1122 0h-424v285h-290v-285h-408v1087q0 226 155.5 382.5t395.5 154.5q244 -2 407.5 -166t163.5 -405v-1053zM698 647v397q0 68 -41 120.5t-106 52.5q-66 0 -104.5 -53.5t-38.5 -119.5v-397h290zM650 1915q65 0 65 74h164q0 -238 -151 -238q-49 0 -141.5 28.5
t-120.5 28.5q-51 0 -51 -59h-172q0 215 148 215q44 0 136 -24.5t123 -24.5z" />
    <glyph glyph-name="uni1EA0" unicode="&#x1ea0;" horiz-adv-x="1204" 
d="M1122 0h-424v285h-290v-285h-408v1087q0 226 155.5 382.5t395.5 154.5q244 -2 407.5 -166t163.5 -405v-1053zM698 647v397q0 68 -41 120.5t-106 52.5q-66 0 -104.5 -53.5t-38.5 -119.5v-397h290zM693 -293q0 -57 -42 -99t-101 -42v0q-60 0 -102 42t-42 99q0 60 42 102
t102 42q59 0 101 -42t42 -102z" />
    <glyph glyph-name="Acircumflex" unicode="&#xc2;" horiz-adv-x="1206" 
d="M1122 0h-424v285h-290v-285h-408v1087q0 226 155.5 382.5t395.5 154.5q244 -2 407.5 -166t163.5 -405v-1053zM698 647v397q0 68 -41 120.5t-106 52.5q-66 0 -104.5 -53.5t-38.5 -119.5v-397h290zM899 1688h-219l-123 182l-123 -182h-217l232 299h219z" />
    <glyph glyph-name="uni1EA6" unicode="&#x1ea6;" horiz-adv-x="1206" 
d="M1122 0h-424v285h-290v-285h-408v1087q0 226 155.5 382.5t395.5 154.5q244 -2 407.5 -166t163.5 -405v-1053zM698 647v397q0 68 -41 120.5t-106 52.5q-66 0 -104.5 -53.5t-38.5 -119.5v-397h290zM899 1688h-219l-123 182l-123 -182h-217l232 299h219zM966 1916h-170
l-162 308h248z" />
    <glyph glyph-name="uni1EA4" unicode="&#x1ea4;" horiz-adv-x="1206" 
d="M1122 0h-424v285h-290v-285h-408v1087q0 226 155.5 382.5t395.5 154.5q244 -2 407.5 -166t163.5 -405v-1053zM698 647v397q0 68 -41 120.5t-106 52.5q-66 0 -104.5 -53.5t-38.5 -119.5v-397h290zM899 1688h-219l-123 182l-123 -182h-217l232 299h219zM1133 2224
l-162 -308h-170l84 308h248z" />
    <glyph glyph-name="uni1EA8" unicode="&#x1ea8;" horiz-adv-x="1206" 
d="M1122 0h-424v285h-290v-285h-408v1087q0 226 155.5 382.5t395.5 154.5q244 -2 407.5 -166t163.5 -405v-1053zM698 647v397q0 68 -41 120.5t-106 52.5q-66 0 -104.5 -53.5t-38.5 -119.5v-397h290zM899 1688h-219l-123 182l-123 -182h-217l232 299h219zM750 2303
q58 25 123 25q94 0 157 -50t63 -135q0 -70 -42 -130q-45 -62 -113 -82v-40h-129v126q62 2 91 34q25 26 25 65q0 34 -14 50q-21 23 -66 23q-50 0 -95 -25v139z" />
    <glyph glyph-name="uni1EAA" unicode="&#x1eaa;" horiz-adv-x="1206" 
d="M1122 0h-424v285h-290v-285h-408v1087q0 226 155.5 382.5t395.5 154.5q244 -2 407.5 -166t163.5 -405v-1053zM698 647v397q0 68 -41 120.5t-106 52.5q-66 0 -104.5 -53.5t-38.5 -119.5v-397h290zM899 1688h-219l-123 182l-123 -182h-217l232 299h219zM714 2204
q65 0 65 74h164q0 -238 -151 -238q-49 0 -141.5 28.5t-120.5 28.5q-51 0 -51 -59h-172q0 215 148 215q44 0 136 -24.5t123 -24.5z" />
    <glyph glyph-name="uni1EAC" unicode="&#x1eac;" horiz-adv-x="1206" 
d="M1122 0h-424v285h-290v-285h-408v1087q0 226 155.5 382.5t395.5 154.5q244 -2 407.5 -166t163.5 -405v-1053zM698 647v397q0 68 -41 120.5t-106 52.5q-66 0 -104.5 -53.5t-38.5 -119.5v-397h290zM899 1688h-219l-123 182l-123 -182h-217l232 299h219zM693 -293
q0 -57 -42 -99t-101 -42v0q-60 0 -102 42t-42 99q0 60 42 102t102 42q59 0 101 -42t42 -102z" />
    <glyph glyph-name="Abreve" unicode="&#x102;" horiz-adv-x="1206" 
d="M1122 0h-424v285h-290v-285h-408v1087q0 226 155.5 382.5t395.5 154.5q244 -2 407.5 -166t163.5 -405v-1053zM698 647v397q0 68 -41 120.5t-106 52.5q-66 0 -104.5 -53.5t-38.5 -119.5v-397h290zM662 1965h189q-12 -101 -68 -171q-84 -104 -225 -104q-134 0 -220 105
q-56 69 -67 170h188q7 -36 25 -64q29 -44 74 -44q46 0 78 44q19 27 26 64z" />
    <glyph glyph-name="uni1EB0" unicode="&#x1eb0;" horiz-adv-x="1206" 
d="M1122 0h-424v285h-290v-285h-408v1087q0 226 155.5 382.5t395.5 154.5q244 -2 407.5 -166t163.5 -405v-1053zM698 647v397q0 68 -41 120.5t-106 52.5q-66 0 -104.5 -53.5t-38.5 -119.5v-397h290zM662 1965h189q-12 -101 -68 -171q-84 -104 -225 -104q-134 0 -220 105
q-56 69 -67 170h188q7 -36 25 -64q29 -44 74 -44q46 0 78 44q19 27 26 64zM651 1993h-170l-162 308h248z" />
    <glyph glyph-name="uni1EAE" unicode="&#x1eae;" horiz-adv-x="1206" 
d="M1122 0h-424v285h-290v-285h-408v1087q0 226 155.5 382.5t395.5 154.5q244 -2 407.5 -166t163.5 -405v-1053zM698 647v397q0 68 -41 120.5t-106 52.5q-66 0 -104.5 -53.5t-38.5 -119.5v-397h290zM662 1965h189q-12 -101 -68 -171q-84 -104 -225 -104q-134 0 -220 105
q-56 69 -67 170h188q7 -36 25 -64q29 -44 74 -44q46 0 78 44q19 27 26 64zM559 2301h248l-162 -308h-170z" />
    <glyph glyph-name="uni1EB2" unicode="&#x1eb2;" horiz-adv-x="1206" 
d="M1122 0h-424v285h-290v-285h-408v1087q0 226 155.5 382.5t395.5 154.5q244 -2 407.5 -166t163.5 -405v-1053zM698 647v397q0 68 -41 120.5t-106 52.5q-66 0 -104.5 -53.5t-38.5 -119.5v-397h290zM662 1965h189q-12 -101 -68 -171q-84 -104 -225 -104q-134 0 -220 105
q-56 69 -67 170h188q7 -36 25 -64q29 -44 74 -44q46 0 78 44q19 27 26 64zM447 2401q58 25 123 25q94 0 157 -50t63 -135q0 -70 -42 -130q-45 -62 -113 -82v-40h-129v126q62 2 91 34q25 26 25 65q0 34 -14 50q-21 23 -66 23q-50 0 -95 -25v139z" />
    <glyph glyph-name="uni1EB4" unicode="&#x1eb4;" horiz-adv-x="1206" 
d="M1122 0h-424v285h-290v-285h-408v1087q0 226 155.5 382.5t395.5 154.5q244 -2 407.5 -166t163.5 -405v-1053zM698 647v397q0 68 -41 120.5t-106 52.5q-66 0 -104.5 -53.5t-38.5 -119.5v-397h290zM662 1965h189q-12 -101 -68 -171q-84 -104 -225 -104q-134 0 -220 105
q-56 69 -67 170h188q7 -36 25 -64q29 -44 74 -44q46 0 78 44q19 27 26 64zM747 2171q65 0 65 74h164q0 -238 -151 -238q-49 0 -141.5 28.5t-120.5 28.5q-51 0 -51 -59h-172q0 215 148 215q44 0 136 -24.5t123 -24.5z" />
    <glyph glyph-name="uni1EB6" unicode="&#x1eb6;" horiz-adv-x="1206" 
d="M1122 0h-424v285h-290v-285h-408v1087q0 226 155.5 382.5t395.5 154.5q244 -2 407.5 -166t163.5 -405v-1053zM698 647v397q0 68 -41 120.5t-106 52.5q-66 0 -104.5 -53.5t-38.5 -119.5v-397h290zM662 1965h189q-12 -101 -68 -171q-84 -104 -225 -104q-134 0 -220 105
q-56 69 -67 170h188q7 -36 25 -64q29 -44 74 -44q46 0 78 44q19 27 26 64zM693 -293q0 -57 -42 -99t-101 -42v0q-60 0 -102 42t-42 99q0 60 42 102t102 42q59 0 101 -42t42 -102z" />
    <glyph glyph-name="Egrave" unicode="&#xc8;" horiz-adv-x="946" 
d="M885 0h-885v1602h877v-388h-476v-227h457v-373h-457v-231h484v-383zM582 1679h-170l-162 308h248z" />
    <glyph glyph-name="Eacute" unicode="&#xc9;" horiz-adv-x="946" 
d="M885 0h-885v1602h877v-388h-476v-227h457v-373h-457v-231h484v-383zM664 1987l-162 -308h-170l84 308h248z" />
    <glyph glyph-name="uni1EBA" unicode="&#x1eba;" horiz-adv-x="966" 
d="M885 0h-885v1602h877v-388h-476v-227h457v-373h-457v-231h484v-383zM335 2111q58 25 123 25q94 0 157 -50t63 -135q0 -70 -42 -130q-45 -62 -113 -82v-40h-129v126q62 2 91 34q25 26 25 65q0 34 -14 50q-21 23 -66 23q-50 0 -95 -25v139z" />
    <glyph glyph-name="uni1EBC" unicode="&#x1ebc;" horiz-adv-x="966" 
d="M885 0h-885v1602h877v-388h-476v-227h457v-373h-457v-231h484v-383zM531 1861q65 0 65 74h164q0 -238 -151 -238q-49 0 -141.5 28.5t-120.5 28.5q-51 0 -51 -59h-172q0 215 148 215q44 0 136 -24.5t123 -24.5z" />
    <glyph glyph-name="uni1EB8" unicode="&#x1eb8;" horiz-adv-x="966" 
d="M885 0h-885v1602h877v-388h-476v-227h457v-373h-457v-231h484v-383zM586 -293q0 -57 -42 -99t-102 -42v0q-59 0 -101 42t-42 99q0 60 42 102t101 42q60 0 102 -42t42 -102z" />
    <glyph glyph-name="Ecircumflex" unicode="&#xca;" horiz-adv-x="946" 
d="M885 0h-885v1602h877v-388h-476v-227h457v-373h-457v-231h484v-383zM772 1688h-217l-123 182l-123 -182h-219l232 299h219z" />
    <glyph glyph-name="uni1EC0" unicode="&#x1ec0;" horiz-adv-x="946" 
d="M885 0h-885v1602h877v-388h-476v-227h457v-373h-457v-231h484v-383zM840 1916h-170l-162 308h248zM772 1688h-217l-123 182l-123 -182h-219l232 299h219z" />
    <glyph glyph-name="uni1EBE" unicode="&#x1ebe;" horiz-adv-x="946" 
d="M885 0h-885v1602h877v-388h-476v-227h457v-373h-457v-231h484v-383zM1004 2224l-162 -308h-170l84 308h248zM772 1688h-217l-123 182l-123 -182h-219l232 299h219z" />
    <glyph glyph-name="uni1EC2" unicode="&#x1ec2;" horiz-adv-x="946" 
d="M885 0h-885v1602h877v-388h-476v-227h457v-373h-457v-231h484v-383zM621 2303q58 25 123 25q94 0 157 -50t63 -135q0 -70 -42 -130q-45 -62 -113 -82v-40h-129v126q62 2 91 34q25 26 25 65q0 34 -14 50q-21 23 -66 23q-50 0 -95 -25v139zM772 1688h-217l-123 182
l-123 -182h-219l232 299h219z" />
    <glyph glyph-name="uni1EC4" unicode="&#x1ec4;" horiz-adv-x="946" 
d="M885 0h-885v1602h877v-388h-476v-227h457v-373h-457v-231h484v-383zM596 2204q65 0 65 74h164q0 -238 -151 -238q-49 0 -141.5 28.5t-120.5 28.5q-51 0 -51 -59h-172q0 215 148 215q44 0 136 -24.5t123 -24.5zM772 1688h-217l-123 182l-123 -182h-219l232 299h219z" />
    <glyph glyph-name="uni1EC6" unicode="&#x1ec6;" horiz-adv-x="946" 
d="M885 0h-885v1602h877v-388h-476v-227h457v-373h-457v-231h484v-383zM772 1688h-217l-123 182l-123 -182h-219l232 299h219zM586 -293q0 -57 -42 -99t-102 -42v0q-59 0 -101 42t-42 99q0 60 42 102t101 42q60 0 102 -42t42 -102z" />
    <glyph glyph-name="Igrave" unicode="&#xcc;" horiz-adv-x="483" 
d="M399 0h-399v1602h399v-1602zM356 1679h-170l-161 308h247z" />
    <glyph glyph-name="Iacute" unicode="&#xcd;" horiz-adv-x="483" 
d="M399 0h-399v1602h399v-1602zM379 1987l-162 -308h-170l84 308h248z" />
    <glyph glyph-name="uni1EC8" unicode="&#x1ec8;" horiz-adv-x="485" 
d="M399 0h-399v1602h399v-1602zM56 2111q58 25 123 25q94 0 157 -50t63 -135q0 -70 -42 -130q-45 -62 -113 -82v-40h-129v126q62 2 91 34q25 26 25 65q0 34 -14 50q-21 23 -66 23q-50 0 -95 -25v139z" />
    <glyph glyph-name="Itilde" unicode="&#x128;" horiz-adv-x="485" 
d="M399 0h-399v1602h399v-1602zM262 1861q65 0 65 74h164q0 -238 -151 -238q-49 0 -142 28.5t-120 28.5q-51 0 -51 -59h-172q0 215 148 215q44 0 136 -24.5t123 -24.5z" />
    <glyph glyph-name="uni1ECA" unicode="&#x1eca;" horiz-adv-x="485" 
d="M399 0h-399v1602h399v-1602zM336 -293q0 -57 -42 -99t-102 -42v0q-59 0 -101 42t-42 99q0 60 42 102t101 42q60 0 102 -42t42 -102z" />
    <glyph glyph-name="Ograve" unicode="&#xd2;" 
d="M1393 801q-2 -400 -172 -611q-176 -217 -525 -217q-684 4 -696 828q-6 395 173 611t523 216q345 0 522 -216t175 -611zM971 801q2 432 -275 432q-135 0 -204.5 -112.5t-67.5 -319.5q4 -430 272 -432v0q271 -2 275 432zM766 1679h-170l-162 308h248z" />
    <glyph glyph-name="Oacute" unicode="&#xd3;" 
d="M1393 801q-2 -400 -172 -611q-176 -217 -525 -217q-684 4 -696 828q-6 395 173 611t523 216q345 0 522 -216t175 -611zM971 801q2 432 -275 432q-135 0 -204.5 -112.5t-67.5 -319.5q4 -430 272 -432v0q271 -2 275 432zM909 1987l-161 -308h-170l84 308h247z" />
    <glyph glyph-name="uni1ECE" unicode="&#x1ece;" 
d="M1393 801q-2 -400 -172 -611q-176 -217 -525 -217q-684 4 -696 828q-6 395 173 611t523 216q345 0 522 -216t175 -611zM971 801q2 432 -275 432q-135 0 -204.5 -112.5t-67.5 -319.5q4 -430 272 -432v0q271 -2 275 432zM557 2111q58 25 123 25q94 0 157 -50t63 -135
q0 -70 -42 -130q-45 -62 -113 -82v-40h-129v126q62 2 91 34q25 26 25 65q0 34 -14 50q-21 23 -66 23q-50 0 -95 -25v139z" />
    <glyph glyph-name="Otilde" unicode="&#xd5;" 
d="M1393 801q-2 -400 -172 -611q-176 -217 -525 -217q-684 4 -696 828q-6 395 173 611t523 216q345 0 522 -216t175 -611zM971 801q2 432 -275 432q-135 0 -204.5 -112.5t-67.5 -319.5q4 -430 272 -432v0q271 -2 275 432zM785 1861q65 0 65 74h164q0 -238 -151 -238
q-49 0 -141.5 28.5t-120.5 28.5q-51 0 -51 -59h-172q0 215 148 215q44 0 136 -24.5t123 -24.5z" />
    <glyph glyph-name="uni1ECC" unicode="&#x1ecc;" 
d="M1393 801q-2 -400 -172 -611q-176 -217 -525 -217q-684 4 -696 828q-6 395 173 611t523 216q345 0 522 -216t175 -611zM971 801q2 432 -275 432q-135 0 -204.5 -112.5t-67.5 -319.5q4 -430 272 -432v0q271 -2 275 432zM840 -293q0 -57 -42 -99t-102 -42v0q-59 0 -101 42
t-42 99q0 60 42 102t101 42q60 0 102 -42t42 -102z" />
    <glyph glyph-name="Ocircumflex" unicode="&#xd4;" 
d="M1393 801q-2 -400 -172 -611q-176 -217 -525 -217q-684 4 -696 828q-6 395 173 611t523 216q345 0 522 -216t175 -611zM971 801q2 432 -275 432q-135 0 -204.5 -112.5t-67.5 -319.5q4 -430 272 -432v0q271 -2 275 432zM1036 1688h-217l-123 182l-124 -182h-218l232 299
h219z" />
    <glyph glyph-name="uni1ED2" unicode="&#x1ed2;" 
d="M1393 801q-2 -400 -172 -611q-176 -217 -525 -217q-684 4 -696 828q-6 395 173 611t523 216q345 0 522 -216t175 -611zM971 801q2 432 -275 432q-135 0 -204.5 -112.5t-67.5 -319.5q4 -430 272 -432v0q271 -2 275 432zM1108 1916h-170l-162 308h248zM1036 1688h-217
l-123 182l-124 -182h-218l232 299h219z" />
    <glyph glyph-name="uni1ED0" unicode="&#x1ed0;" 
d="M1393 801q-2 -400 -172 -611q-176 -217 -525 -217q-684 4 -696 828q-6 395 173 611t523 216q345 0 522 -216t175 -611zM971 801q2 432 -275 432q-135 0 -204.5 -112.5t-67.5 -319.5q4 -430 272 -432v0q271 -2 275 432zM1272 2224l-162 -308h-170l84 308h248zM1036 1688
h-217l-123 182l-124 -182h-218l232 299h219z" />
    <glyph glyph-name="uni1ED4" unicode="&#x1ed4;" 
d="M1393 801q-2 -400 -172 -611q-176 -217 -525 -217q-684 4 -696 828q-6 395 173 611t523 216q345 0 522 -216t175 -611zM971 801q2 432 -275 432q-135 0 -204.5 -112.5t-67.5 -319.5q4 -430 272 -432v0q271 -2 275 432zM890 2303q58 25 123 25q94 0 157 -50t63 -135
q0 -70 -42 -130q-45 -62 -113 -82v-40h-129v126q62 2 91 34q25 26 25 65q0 34 -14 50q-21 23 -66 23q-50 0 -95 -25v139zM1036 1688h-217l-123 182l-124 -182h-218l232 299h219z" />
    <glyph glyph-name="uni1ED6" unicode="&#x1ed6;" 
d="M1393 801q-2 -400 -172 -611q-176 -217 -525 -217q-684 4 -696 828q-6 395 173 611t523 216q345 0 522 -216t175 -611zM971 801q2 432 -275 432q-135 0 -204.5 -112.5t-67.5 -319.5q4 -430 272 -432v0q271 -2 275 432zM864 2204q65 0 65 74h164q0 -238 -151 -238
q-49 0 -141.5 28.5t-120.5 28.5q-51 0 -51 -59h-172q0 215 148 215q44 0 136 -24.5t123 -24.5zM1036 1688h-217l-123 182l-124 -182h-218l232 299h219z" />
    <glyph glyph-name="uni1ED8" unicode="&#x1ed8;" 
d="M1393 801q-2 -400 -172 -611q-176 -217 -525 -217q-684 4 -696 828q-6 395 173 611t523 216q345 0 522 -216t175 -611zM971 801q2 432 -275 432q-135 0 -204.5 -112.5t-67.5 -319.5q4 -430 272 -432v0q271 -2 275 432zM1036 1688h-217l-123 182l-124 -182h-218l232 299
h219zM840 -293q0 -57 -42 -99t-102 -42v0q-59 0 -101 42t-42 99q0 60 42 102t101 42q60 0 102 -42t42 -102z" />
    <glyph glyph-name="Ugrave" unicode="&#xd9;" horiz-adv-x="1198" 
d="M1114 434q0 -219 -176 -348q-160 -115 -387 -113q-225 2 -379 117q-172 127 -172 342v1170h403v-1061q0 -156 158 -156q148 -2 148 160v1057h405v-1168zM705 1679h-170l-162 308h248z" />
    <glyph glyph-name="Uacute" unicode="&#xda;" horiz-adv-x="1198" 
d="M1114 434q0 -219 -176 -348q-160 -115 -387 -113q-225 2 -379 117q-172 127 -172 342v1170h403v-1061q0 -156 158 -156q148 -2 148 160v1057h405v-1168zM748 1987l-162 -308h-170l84 308h248z" />
    <glyph glyph-name="uni1EE6" unicode="&#x1ee6;" horiz-adv-x="1198" 
d="M1114 434q0 -219 -176 -348q-160 -115 -387 -113q-225 2 -379 117q-172 127 -172 342v1170h403v-1061q0 -156 158 -156q148 -2 148 160v1057h405v-1168zM443 2111q58 25 123 25q94 0 157 -50t63 -135q0 -70 -42 -130q-45 -62 -113 -82v-40h-129v126q62 2 91 34
q25 26 25 65q0 34 -14 50q-21 23 -66 23q-50 0 -95 -25v139z" />
    <glyph glyph-name="Utilde" unicode="&#x168;" horiz-adv-x="1198" 
d="M1114 434q0 -219 -176 -348q-160 -115 -387 -113q-225 2 -379 117q-172 127 -172 342v1170h403v-1061q0 -156 158 -156q148 -2 148 160v1057h405v-1168zM649 1861q65 0 65 74h164q0 -238 -151 -238q-49 0 -141.5 28.5t-120.5 28.5q-51 0 -51 -59h-172q0 215 148 215
q44 0 136 -24.5t123 -24.5z" />
    <glyph glyph-name="uni1EE4" unicode="&#x1ee4;" horiz-adv-x="1198" 
d="M1114 434q0 -219 -176 -348q-160 -115 -387 -113q-225 2 -379 117q-172 127 -172 342v1170h403v-1061q0 -156 158 -156q148 -2 148 160v1057h405v-1168zM700 -293q0 -57 -42 -99t-101 -42v0q-59 0 -101 42t-42 99q0 60 42 102t101 42t101 -42t42 -102z" />
    <glyph glyph-name="Uhorn" unicode="&#x1af;" horiz-adv-x="1198" 
d="M1177 1554q0 -45 -32.5 -77.5t-78.5 -32.5v0q-47 0 -79.5 32.5t-32.5 77.5q0 46 32.5 79t79.5 33q46 0 78.5 -33t32.5 -79zM1114 1407v-973q0 -219 -176 -348q-160 -115 -387 -113q-225 2 -379 117q-172 127 -172 342v1170h403v-1061q0 -156 158 -156q148 -2 148 160
v1057h209q-8 -23 -8 -50q0 -62 45 -107.5t110 -45.5q26 0 49 8z" />
    <glyph glyph-name="uni1EEA" unicode="&#x1eea;" horiz-adv-x="1198" 
d="M705 1679h-170l-162 308h248zM1177 1554q0 -45 -32.5 -77.5t-78.5 -32.5v0q-47 0 -79.5 32.5t-32.5 77.5q0 46 32.5 79t79.5 33q46 0 78.5 -33t32.5 -79zM1114 1407v-973q0 -219 -176 -348q-160 -115 -387 -113q-225 2 -379 117q-172 127 -172 342v1170h403v-1061
q0 -156 158 -156q148 -2 148 160v1057h209q-8 -23 -8 -50q0 -62 45 -107.5t110 -45.5q26 0 49 8z" />
    <glyph glyph-name="uni1EE8" unicode="&#x1ee8;" horiz-adv-x="1198" 
d="M748 1987l-162 -308h-170l84 308h248zM1177 1554q0 -45 -32.5 -77.5t-78.5 -32.5v0q-47 0 -79.5 32.5t-32.5 77.5q0 46 32.5 79t79.5 33q46 0 78.5 -33t32.5 -79zM1114 1407v-973q0 -219 -176 -348q-160 -115 -387 -113q-225 2 -379 117q-172 127 -172 342v1170h403
v-1061q0 -156 158 -156q148 -2 148 160v1057h209q-8 -23 -8 -50q0 -62 45 -107.5t110 -45.5q26 0 49 8z" />
    <glyph glyph-name="uni1EEC" unicode="&#x1eec;" horiz-adv-x="1198" 
d="M443 2111q58 25 123 25q94 0 157 -50t63 -135q0 -70 -42 -130q-45 -62 -113 -82v-40h-129v126q62 2 91 34q25 26 25 65q0 34 -14 50q-21 23 -66 23q-50 0 -95 -25v139zM1177 1554q0 -45 -32.5 -77.5t-78.5 -32.5v0q-47 0 -79.5 32.5t-32.5 77.5q0 46 32.5 79t79.5 33
q46 0 78.5 -33t32.5 -79zM1114 1407v-973q0 -219 -176 -348q-160 -115 -387 -113q-225 2 -379 117q-172 127 -172 342v1170h403v-1061q0 -156 158 -156q148 -2 148 160v1057h209q-8 -23 -8 -50q0 -62 45 -107.5t110 -45.5q26 0 49 8z" />
    <glyph glyph-name="uni1EEE" unicode="&#x1eee;" horiz-adv-x="1198" 
d="M649 1861q65 0 65 74h164q0 -238 -151 -238q-49 0 -141.5 28.5t-120.5 28.5q-51 0 -51 -59h-172q0 215 148 215q44 0 136 -24.5t123 -24.5zM1177 1554q0 -45 -32.5 -77.5t-78.5 -32.5v0q-47 0 -79.5 32.5t-32.5 77.5q0 46 32.5 79t79.5 33q46 0 78.5 -33t32.5 -79z
M1114 1407v-973q0 -219 -176 -348q-160 -115 -387 -113q-225 2 -379 117q-172 127 -172 342v1170h403v-1061q0 -156 158 -156q148 -2 148 160v1057h209q-8 -23 -8 -50q0 -62 45 -107.5t110 -45.5q26 0 49 8z" />
    <glyph glyph-name="uni1EF0" unicode="&#x1ef0;" horiz-adv-x="1198" 
d="M700 -293q0 -57 -42 -99t-101 -42v0q-59 0 -101 42t-42 99q0 60 42 102t101 42t101 -42t42 -102zM1177 1554q0 -45 -32.5 -77.5t-78.5 -32.5v0q-47 0 -79.5 32.5t-32.5 77.5q0 46 32.5 79t79.5 33q46 0 78.5 -33t32.5 -79zM1114 1407v-973q0 -219 -176 -348
q-160 -115 -387 -113q-225 2 -379 117q-172 127 -172 342v1170h403v-1061q0 -156 158 -156q148 -2 148 160v1057h209q-8 -23 -8 -50q0 -62 45 -107.5t110 -45.5q26 0 49 8z" />
    <glyph glyph-name="Ohorn" unicode="&#x1a0;" 
d="M971 801q2 432 -275 432q-135 0 -204.5 -112.5t-67.5 -319.5q4 -430 272 -432v0q271 -2 275 432zM1246 1554q0 -45 -32.5 -77.5t-78.5 -32.5v0q-47 0 -79.5 32.5t-32.5 77.5q0 46 32.5 79t79.5 33q46 0 78.5 -33t32.5 -79zM1209 1422q5 -5 9 -10q177 -216 175 -611
q-2 -400 -172 -611q-176 -217 -525 -217q-684 4 -696 828q-6 395 173 611t523 216q162 0 286 -47q-3 -17 -3 -34q0 -60 44 -104t106 -44q45 0 80 23z" />
    <glyph glyph-name="uni1EDC" unicode="&#x1edc;" 
d="M971 801q2 432 -275 432q-135 0 -204.5 -112.5t-67.5 -319.5q4 -430 272 -432v0q271 -2 275 432zM766 1679h-170l-162 308h248zM1246 1554q0 -45 -32.5 -77.5t-78.5 -32.5v0q-47 0 -79.5 32.5t-32.5 77.5q0 46 32.5 79t79.5 33q46 0 78.5 -33t32.5 -79zM1209 1422
q5 -5 9 -10q177 -216 175 -611q-2 -400 -172 -611q-176 -217 -525 -217q-684 4 -696 828q-6 395 173 611t523 216q162 0 286 -47q-3 -17 -3 -34q0 -60 44 -104t106 -44q45 0 80 23z" />
    <glyph glyph-name="uni1EDA" unicode="&#x1eda;" 
d="M971 801q2 432 -275 432q-135 0 -204.5 -112.5t-67.5 -319.5q4 -430 272 -432v0q271 -2 275 432zM909 1987l-161 -308h-170l84 308h247zM1246 1554q0 -45 -32.5 -77.5t-78.5 -32.5v0q-47 0 -79.5 32.5t-32.5 77.5q0 46 32.5 79t79.5 33q46 0 78.5 -33t32.5 -79z
M1209 1422q5 -5 9 -10q177 -216 175 -611q-2 -400 -172 -611q-176 -217 -525 -217q-684 4 -696 828q-6 395 173 611t523 216q162 0 286 -47q-3 -17 -3 -34q0 -60 44 -104t106 -44q45 0 80 23z" />
    <glyph glyph-name="uni1EDE" unicode="&#x1ede;" 
d="M971 801q2 432 -275 432q-135 0 -204.5 -112.5t-67.5 -319.5q4 -430 272 -432v0q271 -2 275 432zM557 2111q58 25 123 25q94 0 157 -50t63 -135q0 -70 -42 -130q-45 -62 -113 -82v-40h-129v126q62 2 91 34q25 26 25 65q0 34 -14 50q-21 23 -66 23q-50 0 -95 -25v139z
M1246 1554q0 -45 -32.5 -77.5t-78.5 -32.5v0q-47 0 -79.5 32.5t-32.5 77.5q0 46 32.5 79t79.5 33q46 0 78.5 -33t32.5 -79zM1209 1422q5 -5 9 -10q177 -216 175 -611q-2 -400 -172 -611q-176 -217 -525 -217q-684 4 -696 828q-6 395 173 611t523 216q162 0 286 -47
q-3 -17 -3 -34q0 -60 44 -104t106 -44q45 0 80 23z" />
    <glyph glyph-name="uni1EE0" unicode="&#x1ee0;" 
d="M971 801q2 432 -275 432q-135 0 -204.5 -112.5t-67.5 -319.5q4 -430 272 -432v0q271 -2 275 432zM785 1861q65 0 65 74h164q0 -238 -151 -238q-49 0 -141.5 28.5t-120.5 28.5q-51 0 -51 -59h-172q0 215 148 215q44 0 136 -24.5t123 -24.5zM1246 1554q0 -45 -32.5 -77.5
t-78.5 -32.5v0q-47 0 -79.5 32.5t-32.5 77.5q0 46 32.5 79t79.5 33q46 0 78.5 -33t32.5 -79zM1209 1422q5 -5 9 -10q177 -216 175 -611q-2 -400 -172 -611q-176 -217 -525 -217q-684 4 -696 828q-6 395 173 611t523 216q162 0 286 -47q-3 -17 -3 -34q0 -60 44 -104t106 -44
q45 0 80 23z" />
    <glyph glyph-name="uni1EE2" unicode="&#x1ee2;" 
d="M971 801q2 432 -275 432q-135 0 -204.5 -112.5t-67.5 -319.5q4 -430 272 -432v0q271 -2 275 432zM840 -293q0 -57 -42 -99t-102 -42v0q-59 0 -101 42t-42 99q0 60 42 102t101 42q60 0 102 -42t42 -102zM1246 1554q0 -45 -32.5 -77.5t-78.5 -32.5v0q-47 0 -79.5 32.5
t-32.5 77.5q0 46 32.5 79t79.5 33q46 0 78.5 -33t32.5 -79zM1209 1422q5 -5 9 -10q177 -216 175 -611q-2 -400 -172 -611q-176 -217 -525 -217q-684 4 -696 828q-6 395 173 611t523 216q162 0 286 -47q-3 -17 -3 -34q0 -60 44 -104t106 -44q45 0 80 23z" />
    <glyph glyph-name="Ygrave" unicode="&#x1ef2;" horiz-adv-x="1402" 
d="M1345 1602l-471 -1041v-561h-401v561l-471 1041h475l199 -588l215 588h454zM786 1679h-170l-161 308h247z" />
    <glyph glyph-name="Yacute" unicode="&#xdd;" horiz-adv-x="1402" 
d="M1345 1602l-471 -1041v-561h-401v561l-471 1041h475l199 -588l215 588h454zM667 1987h247l-161 -308h-170z" />
    <glyph glyph-name="uni1EF6" unicode="&#x1ef6;" horiz-adv-x="1402" 
d="M1345 1602l-471 -1041v-561h-401v561l-471 1041h475l199 -588l215 588h454zM561 2111q58 25 123 25q94 0 157 -50t63 -135q0 -70 -42 -130q-45 -62 -113 -82v-40h-129v126q62 2 91 34q25 26 25 65q0 34 -14 50q-21 23 -66 23q-50 0 -95 -25v139z" />
    <glyph glyph-name="uni1EF8" unicode="&#x1ef8;" horiz-adv-x="1402" 
d="M1345 1602l-471 -1041v-561h-401v561l-471 1041h475l199 -588l215 588h454zM789 1861q65 0 65 74h164q0 -238 -151 -238q-49 0 -141.5 28.5t-120.5 28.5q-51 0 -51 -59h-172q0 215 148 215q44 0 136 -24.5t123 -24.5z" />
    <glyph glyph-name="uni1EF4" unicode="&#x1ef4;" horiz-adv-x="1402" 
d="M1345 1602l-471 -1041v-561h-401v561l-471 1041h475l199 -588l215 588h454zM797 -293q0 -57 -42 -99t-102 -42v0q-59 0 -101 42t-42 99q0 60 42 102t101 42q60 0 102 -42t42 -102z" />
    <glyph glyph-name="agrave" unicode="&#xe0;" horiz-adv-x="1015" 
d="M934 0h-358v59q-103 -65 -209 -65q-146 0 -250 108.5t-117 272.5v0q-10 194 117 319q119 117 295 117q84 0 164 -31q0 99 -15 115q-41 51 -163 51q-199 0 -281 -94v313q158 70 356 70q197 0 318 -78q143 -92 143 -278v-879zM574 334v160q-9 28 -39.5 46.5t-65.5 16.5
q-53 -2 -90 -43t-37 -100q0 -60 37 -101t90 -43q82 -4 105 64zM592 1294h-170l-162 308h248z" />
    <glyph glyph-name="aacute" unicode="&#xe1;" horiz-adv-x="1015" 
d="M934 0h-358v59q-103 -65 -209 -65q-146 0 -250 108.5t-117 272.5v0q-10 194 117 319q119 117 295 117q84 0 164 -31q0 99 -15 115q-41 51 -163 51q-199 0 -281 -94v313q158 70 356 70q197 0 318 -78q143 -92 143 -278v-879zM574 334v160q-9 28 -39.5 46.5t-65.5 16.5
q-53 -2 -90 -43t-37 -100q0 -60 37 -101t90 -43q82 -4 105 64zM701 1602l-162 -308h-170l84 308h248z" />
    <glyph glyph-name="uni1EA3" unicode="&#x1ea3;" horiz-adv-x="1024" 
d="M934 0h-358v59q-103 -65 -209 -65q-146 0 -250 108.5t-117 272.5v0q-10 194 117 319q119 117 295 117q84 0 164 -31q0 99 -15 115q-41 51 -163 51q-199 0 -281 -94v313q158 70 356 70q197 0 318 -78q143 -92 143 -278v-879zM574 334v160q-9 28 -39.5 46.5t-65.5 16.5
q-53 -2 -90 -43t-37 -100q0 -60 37 -101t90 -43q82 -4 105 64zM385 1714q58 25 123 25q94 0 157 -50t63 -135q0 -70 -42 -130q-45 -62 -113 -82v-40h-129v126q62 2 91 34q25 26 25 65q0 34 -14 50q-21 23 -66 23q-50 0 -95 -25v139z" />
    <glyph glyph-name="atilde" unicode="&#xe3;" horiz-adv-x="1024" 
d="M934 0h-358v59q-103 -65 -209 -65q-146 0 -250 108.5t-117 272.5v0q-10 194 117 319q119 117 295 117q84 0 164 -31q0 99 -15 115q-41 51 -163 51q-199 0 -281 -94v313q158 70 356 70q197 0 318 -78q143 -92 143 -278v-879zM574 334v160q-9 28 -39.5 46.5t-65.5 16.5
q-53 -2 -90 -43t-37 -100q0 -60 37 -101t90 -43q82 -4 105 64zM603 1464q65 0 65 74h164q0 -238 -151 -238q-49 0 -142 28.5t-120 28.5q-51 0 -51 -59h-172q0 215 148 215q43 0 135.5 -24.5t123.5 -24.5z" />
    <glyph glyph-name="uni1EA1" unicode="&#x1ea1;" horiz-adv-x="1024" 
d="M934 0h-358v59q-103 -65 -209 -65q-146 0 -250 108.5t-117 272.5v0q-10 194 117 319q119 117 295 117q84 0 164 -31q0 99 -15 115q-41 51 -163 51q-199 0 -281 -94v313q158 70 356 70q197 0 318 -78q143 -92 143 -278v-879zM574 334v160q-9 28 -39.5 46.5t-65.5 16.5
q-53 -2 -90 -43t-37 -100q0 -60 37 -101t90 -43q82 -4 105 64zM606 -293q0 -57 -42 -99t-101 -42v0q-60 0 -102 42t-42 99q0 60 42 102t102 42q59 0 101 -42t42 -102z" />
    <glyph glyph-name="acircumflex" unicode="&#xe2;" horiz-adv-x="1015" 
d="M934 0h-358v59q-103 -65 -209 -65q-146 0 -250 108.5t-117 272.5v0q-10 194 117 319q119 117 295 117q84 0 164 -31q0 99 -15 115q-41 51 -163 51q-199 0 -281 -94v313q158 70 356 70q197 0 318 -78q143 -92 143 -278v-879zM574 334v160q-9 28 -39.5 46.5t-65.5 16.5
q-53 -2 -90 -43t-37 -100q0 -60 37 -101t90 -43q82 -4 105 64zM836 1303h-217l-123 182l-123 -182h-219l231 299h219z" />
    <glyph glyph-name="uni1EA7" unicode="&#x1ea7;" horiz-adv-x="1015" 
d="M934 0h-358v59q-103 -65 -209 -65q-146 0 -250 108.5t-117 272.5v0q-10 194 117 319q119 117 295 117q84 0 164 -31q0 99 -15 115q-41 51 -163 51q-199 0 -281 -94v313q158 70 356 70q197 0 318 -78q143 -92 143 -278v-879zM574 334v160q-9 28 -39.5 46.5t-65.5 16.5
q-53 -2 -90 -43t-37 -100q0 -60 37 -101t90 -43q82 -4 105 64zM899 1523h-170l-162 308h248zM836 1303h-217l-123 182l-123 -182h-219l231 299h219z" />
    <glyph glyph-name="uni1EA5" unicode="&#x1ea5;" horiz-adv-x="1015" 
d="M934 0h-358v59q-103 -65 -209 -65q-146 0 -250 108.5t-117 272.5v0q-10 194 117 319q119 117 295 117q84 0 164 -31q0 99 -15 115q-41 51 -163 51q-199 0 -281 -94v313q158 70 356 70q197 0 318 -78q143 -92 143 -278v-879zM574 334v160q-9 28 -39.5 46.5t-65.5 16.5
q-53 -2 -90 -43t-37 -100q0 -60 37 -101t90 -43q82 -4 105 64zM1063 1841l-162 -308h-170l84 308h248zM836 1303h-217l-123 182l-123 -182h-219l231 299h219z" />
    <glyph glyph-name="uni1EA9" unicode="&#x1ea9;" horiz-adv-x="1015" 
d="M934 0h-358v59q-103 -65 -209 -65q-146 0 -250 108.5t-117 272.5v0q-10 194 117 319q119 117 295 117q84 0 164 -31q0 99 -15 115q-41 51 -163 51q-199 0 -281 -94v313q158 70 356 70q197 0 318 -78q143 -92 143 -278v-879zM574 334v160q-9 28 -39.5 46.5t-65.5 16.5
q-53 -2 -90 -43t-37 -100q0 -60 37 -101t90 -43q82 -4 105 64zM680 1920q58 25 123 25q94 0 157 -50t63 -135q0 -70 -42 -130q-45 -62 -113 -82v-40h-129v126q62 2 91 34q25 26 25 65q0 34 -14 50q-21 23 -66 23q-50 0 -95 -25v139zM836 1303h-217l-123 182l-123 -182h-219
l231 299h219z" />
    <glyph glyph-name="uni1EAB" unicode="&#x1eab;" horiz-adv-x="1015" 
d="M934 0h-358v59q-103 -65 -209 -65q-146 0 -250 108.5t-117 272.5v0q-10 194 117 319q119 117 295 117q84 0 164 -31q0 99 -15 115q-41 51 -163 51q-199 0 -281 -94v313q158 70 356 70q197 0 318 -78q143 -92 143 -278v-879zM574 334v160q-9 28 -39.5 46.5t-65.5 16.5
q-53 -2 -90 -43t-37 -100q0 -60 37 -101t90 -43q82 -4 105 64zM655 1821q65 0 65 74h164q0 -238 -151 -238q-49 0 -141.5 28.5t-120.5 28.5q-51 0 -51 -59h-172q0 215 148 215q44 0 136 -24.5t123 -24.5zM836 1303h-217l-123 182l-123 -182h-219l231 299h219z" />
    <glyph glyph-name="uni1EAD" unicode="&#x1ead;" horiz-adv-x="1015" 
d="M934 0h-358v59q-103 -65 -209 -65q-146 0 -250 108.5t-117 272.5v0q-10 194 117 319q119 117 295 117q84 0 164 -31q0 99 -15 115q-41 51 -163 51q-199 0 -281 -94v313q158 70 356 70q197 0 318 -78q143 -92 143 -278v-879zM574 334v160q-9 28 -39.5 46.5t-65.5 16.5
q-53 -2 -90 -43t-37 -100q0 -60 37 -101t90 -43q82 -4 105 64zM836 1303h-217l-123 182l-123 -182h-219l231 299h219zM606 -293q0 -57 -42 -99t-101 -42v0q-60 0 -102 42t-42 99q0 60 42 102t102 42q59 0 101 -42t42 -102z" />
    <glyph glyph-name="abreve" unicode="&#x103;" horiz-adv-x="1024" 
d="M934 0h-358v59q-103 -65 -209 -65q-146 0 -250 108.5t-117 272.5v0q-10 194 117 319q119 117 295 117q84 0 164 -31q0 99 -15 115q-41 51 -163 51q-199 0 -281 -94v313q158 70 356 70q197 0 318 -78q143 -92 143 -278v-879zM574 334v160q-9 28 -39.5 46.5t-65.5 16.5
q-53 -2 -90 -43t-37 -100q0 -60 37 -101t90 -43q82 -4 105 64zM612 1572h189q-12 -101 -68 -171q-84 -104 -225 -104q-134 0 -220 105q-56 69 -67 170h188q7 -36 25 -64q29 -44 74 -44q46 0 78 44q19 27 26 64z" />
    <glyph glyph-name="uni1EB1" unicode="&#x1eb1;" horiz-adv-x="1024" 
d="M934 0h-358v59q-103 -65 -209 -65q-146 0 -250 108.5t-117 272.5v0q-10 194 117 319q119 117 295 117q84 0 164 -31q0 99 -15 115q-41 51 -163 51q-199 0 -281 -94v313q158 70 356 70q197 0 318 -78q143 -92 143 -278v-879zM574 334v160q-9 28 -39.5 46.5t-65.5 16.5
q-53 -2 -90 -43t-37 -100q0 -60 37 -101t90 -43q82 -4 105 64zM612 1572h189q-12 -101 -68 -171q-84 -104 -225 -104q-134 0 -220 105q-56 69 -67 170h188q7 -36 25 -64q29 -44 74 -44q46 0 78 44q19 27 26 64zM600 1581h-170l-162 308h248z" />
    <glyph glyph-name="uni1EAF" unicode="&#x1eaf;" horiz-adv-x="1024" 
d="M934 0h-358v59q-103 -65 -209 -65q-146 0 -250 108.5t-117 272.5v0q-10 194 117 319q119 117 295 117q84 0 164 -31q0 99 -15 115q-41 51 -163 51q-199 0 -281 -94v313q158 70 356 70q197 0 318 -78q143 -92 143 -278v-879zM574 334v160q-9 28 -39.5 46.5t-65.5 16.5
q-53 -2 -90 -43t-37 -100q0 -60 37 -101t90 -43q82 -4 105 64zM612 1572h189q-12 -101 -68 -171q-84 -104 -225 -104q-134 0 -220 105q-56 69 -67 170h188q7 -36 25 -64q29 -44 74 -44q46 0 78 44q19 27 26 64zM503 1889h248l-162 -308h-170z" />
    <glyph glyph-name="uni1EB3" unicode="&#x1eb3;" horiz-adv-x="1024" 
d="M934 0h-358v59q-103 -65 -209 -65q-146 0 -250 108.5t-117 272.5v0q-10 194 117 319q119 117 295 117q84 0 164 -31q0 99 -15 115q-41 51 -163 51q-199 0 -281 -94v313q158 70 356 70q197 0 318 -78q143 -92 143 -278v-879zM574 334v160q-9 28 -39.5 46.5t-65.5 16.5
q-53 -2 -90 -43t-37 -100q0 -60 37 -101t90 -43q82 -4 105 64zM612 1572h189q-12 -101 -68 -171q-84 -104 -225 -104q-134 0 -220 105q-56 69 -67 170h188q7 -36 25 -64q29 -44 74 -44q46 0 78 44q19 27 26 64zM385 1979q58 25 123 25q94 0 157 -50t63 -135q0 -70 -42 -130
q-45 -62 -113 -82v-40h-129v126q62 2 91 34q25 26 25 65q0 34 -14 50q-21 23 -66 23q-50 0 -95 -25v139z" />
    <glyph glyph-name="uni1EB5" unicode="&#x1eb5;" horiz-adv-x="1024" 
d="M934 0h-358v59q-103 -65 -209 -65q-146 0 -250 108.5t-117 272.5v0q-10 194 117 319q119 117 295 117q84 0 164 -31q0 99 -15 115q-41 51 -163 51q-199 0 -281 -94v313q158 70 356 70q197 0 318 -78q143 -92 143 -278v-879zM574 334v160q-9 28 -39.5 46.5t-65.5 16.5
q-53 -2 -90 -43t-37 -100q0 -60 37 -101t90 -43q82 -4 105 64zM612 1572h189q-12 -101 -68 -171q-84 -104 -225 -104q-134 0 -220 105q-56 69 -67 170h188q7 -36 25 -64q29 -44 74 -44q46 0 78 44q19 27 26 64zM691 1764q65 0 65 74h164q0 -238 -151 -238q-49 0 -142 28.5
t-120 28.5q-51 0 -51 -59h-172q0 215 148 215q43 0 135.5 -24.5t123.5 -24.5z" />
    <glyph glyph-name="uni1EB7" unicode="&#x1eb7;" horiz-adv-x="1024" 
d="M934 0h-358v59q-103 -65 -209 -65q-146 0 -250 108.5t-117 272.5v0q-10 194 117 319q119 117 295 117q84 0 164 -31q0 99 -15 115q-41 51 -163 51q-199 0 -281 -94v313q158 70 356 70q197 0 318 -78q143 -92 143 -278v-879zM574 334v160q-9 28 -39.5 46.5t-65.5 16.5
q-53 -2 -90 -43t-37 -100q0 -60 37 -101t90 -43q82 -4 105 64zM612 1572h189q-12 -101 -68 -171q-84 -104 -225 -104q-134 0 -220 105q-56 69 -67 170h188q7 -36 25 -64q29 -44 74 -44q46 0 78 44q19 27 26 64zM606 -293q0 -57 -42 -99t-101 -42v0q-60 0 -102 42t-42 99
q0 60 42 102t102 42q59 0 101 -42t42 -102z" />
    <glyph glyph-name="egrave" unicode="&#xe8;" horiz-adv-x="1062" 
d="M1014 516h-653q0 -113 82 -174q73 -53 192 -53q197 0 330 117v-338q-174 -82 -371 -82q-256 0 -414 145q-186 174 -180 520q6 283 184 443q148 129 338 131v0q252 2 381 -178q115 -160 115 -433q0 -49 -4 -98zM680 760q-6 71 -53 114.5t-111 45.5q-61 0 -108 -44.5
t-54 -115.5h326zM639 1294h-170l-162 308h248z" />
    <glyph glyph-name="eacute" unicode="&#xe9;" horiz-adv-x="1062" 
d="M1014 516h-653q0 -113 82 -174q73 -53 192 -53q197 0 330 117v-338q-174 -82 -371 -82q-256 0 -414 145q-186 174 -180 520q6 283 184 443q148 129 338 131v0q252 2 381 -178q115 -160 115 -433q0 -49 -4 -98zM680 760q-6 71 -53 114.5t-111 45.5q-61 0 -108 -44.5
t-54 -115.5h326zM746 1602l-162 -308h-170l84 308h248z" />
    <glyph glyph-name="uni1EBB" unicode="&#x1ebb;" horiz-adv-x="1079" 
d="M1014 516h-653q0 -113 82 -174q73 -53 192 -53q197 0 330 117v-338q-174 -82 -371 -82q-256 0 -414 145q-186 174 -180 520q6 283 184 443q148 129 338 131v0q252 2 381 -178q115 -160 115 -433q0 -49 -4 -98zM680 760q-6 71 -53 114.5t-111 45.5q-61 0 -108 -44.5
t-54 -115.5h326zM414 1714q58 25 123 25q94 0 157 -50t63 -135q0 -70 -42 -130q-45 -62 -113 -82v-40h-129v126q62 2 91 34q25 26 25 65q0 34 -14 50q-21 23 -66 23q-50 0 -95 -25v139z" />
    <glyph glyph-name="uni1EBD" unicode="&#x1ebd;" horiz-adv-x="1079" 
d="M1014 516h-653q0 -113 82 -174q73 -53 192 -53q197 0 330 117v-338q-174 -82 -371 -82q-256 0 -414 145q-186 174 -180 520q6 283 184 443q148 129 338 131v0q252 2 381 -178q115 -160 115 -433q0 -49 -4 -98zM680 760q-6 71 -53 114.5t-111 45.5q-61 0 -108 -44.5
t-54 -115.5h326zM628 1464q65 0 65 74h164q0 -238 -151 -238q-49 0 -142 28.5t-120 28.5q-51 0 -51 -59h-172q0 215 148 215q43 0 135.5 -24.5t123.5 -24.5z" />
    <glyph glyph-name="uni1EB9" unicode="&#x1eb9;" horiz-adv-x="1079" 
d="M1014 516h-653q0 -113 82 -174q73 -53 192 -53q197 0 330 117v-338q-174 -82 -371 -82q-256 0 -414 145q-186 174 -180 520q6 283 184 443q148 129 338 131v0q252 2 381 -178q115 -160 115 -433q0 -49 -4 -98zM680 760q-6 71 -53 114.5t-111 45.5q-61 0 -108 -44.5
t-54 -115.5h326zM671 -293q0 -57 -42 -99t-101 -42v0q-60 0 -102 42t-42 99q0 60 42 102t102 42q59 0 101 -42t42 -102z" />
    <glyph glyph-name="ecircumflex" unicode="&#xea;" horiz-adv-x="1077" 
d="M1014 516h-653q0 -113 82 -174q73 -53 192 -53q197 0 330 117v-338q-174 -82 -371 -82q-256 0 -414 145q-186 174 -180 520q6 283 184 443q148 129 338 131v0q252 2 381 -178q115 -160 115 -433q0 -49 -4 -98zM680 760q-6 71 -53 114.5t-111 45.5q-61 0 -108 -44.5
t-54 -115.5h326zM864 1303h-217l-123 182l-122 -182h-220l232 299h219z" />
    <glyph glyph-name="uni1EC1" unicode="&#x1ec1;" horiz-adv-x="1077" 
d="M1014 516h-653q0 -113 82 -174q73 -53 192 -53q197 0 330 117v-338q-174 -82 -371 -82q-256 0 -414 145q-186 174 -180 520q6 283 184 443q148 129 338 131v0q252 2 381 -178q115 -160 115 -433q0 -49 -4 -98zM680 760q-6 71 -53 114.5t-111 45.5q-61 0 -108 -44.5
t-54 -115.5h326zM928 1523h-170l-162 308h248zM864 1303h-217l-123 182l-122 -182h-220l232 299h219z" />
    <glyph glyph-name="uni1EBF" unicode="&#x1ebf;" horiz-adv-x="1077" 
d="M1014 516h-653q0 -113 82 -174q73 -53 192 -53q197 0 330 117v-338q-174 -82 -371 -82q-256 0 -414 145q-186 174 -180 520q6 283 184 443q148 129 338 131v0q252 2 381 -178q115 -160 115 -433q0 -49 -4 -98zM680 760q-6 71 -53 114.5t-111 45.5q-61 0 -108 -44.5
t-54 -115.5h326zM1092 1841l-162 -308h-170l84 308h248zM864 1303h-217l-123 182l-122 -182h-220l232 299h219z" />
    <glyph glyph-name="uni1EC3" unicode="&#x1ec3;" horiz-adv-x="1077" 
d="M1014 516h-653q0 -113 82 -174q73 -53 192 -53q197 0 330 117v-338q-174 -82 -371 -82q-256 0 -414 145q-186 174 -180 520q6 283 184 443q148 129 338 131v0q252 2 381 -178q115 -160 115 -433q0 -49 -4 -98zM680 760q-6 71 -53 114.5t-111 45.5q-61 0 -108 -44.5
t-54 -115.5h326zM709 1920q58 25 123 25q94 0 157 -50t63 -135q0 -70 -42 -130q-45 -62 -113 -82v-40h-129v126q62 2 91 34q25 26 25 65q0 34 -14 50q-21 23 -66 23q-50 0 -95 -25v139zM864 1303h-217l-123 182l-122 -182h-220l232 299h219z" />
    <glyph glyph-name="uni1EC5" unicode="&#x1ec5;" horiz-adv-x="1077" 
d="M1014 516h-653q0 -113 82 -174q73 -53 192 -53q197 0 330 117v-338q-174 -82 -371 -82q-256 0 -414 145q-186 174 -180 520q6 283 184 443q148 129 338 131v0q252 2 381 -178q115 -160 115 -433q0 -49 -4 -98zM680 760q-6 71 -53 114.5t-111 45.5q-61 0 -108 -44.5
t-54 -115.5h326zM694 1821q65 0 65 74h164q0 -238 -151 -238q-49 0 -141.5 28.5t-120.5 28.5q-51 0 -51 -59h-172q0 215 148 215q44 0 136 -24.5t123 -24.5zM864 1303h-217l-123 182l-122 -182h-220l232 299h219z" />
    <glyph glyph-name="uni1EC7" unicode="&#x1ec7;" horiz-adv-x="1077" 
d="M1014 516h-653q0 -113 82 -174q73 -53 192 -53q197 0 330 117v-338q-174 -82 -371 -82q-256 0 -414 145q-186 174 -180 520q6 283 184 443q148 129 338 131v0q252 2 381 -178q115 -160 115 -433q0 -49 -4 -98zM680 760q-6 71 -53 114.5t-111 45.5q-61 0 -108 -44.5
t-54 -115.5h326zM864 1303h-217l-123 182l-122 -182h-220l232 299h219zM671 -293q0 -57 -42 -99t-101 -42v0q-60 0 -102 42t-42 99q0 60 42 102t102 42q59 0 101 -42t42 -102z" />
    <glyph glyph-name="igrave" unicode="&#xec;" horiz-adv-x="434" 
d="M350 0h-350v1208h350v-1208zM336 1294h-170l-162 308h248z" />
    <glyph glyph-name="iacute" unicode="&#xed;" horiz-adv-x="434" 
d="M350 0h-350v1208h350v-1208zM350 1602l-162 -308h-170l84 308h248z" />
    <glyph glyph-name="uni1EC9" unicode="&#x1ec9;" horiz-adv-x="466" 
d="M368 0h-350v1208h350v-1208zM61 1714q58 25 123 25q94 0 157 -50t63 -135q0 -70 -42 -130q-45 -62 -113 -82v-40h-129v126q62 2 91 34q25 26 25 65q0 34 -14 50q-21 23 -66 23q-50 0 -95 -25v139z" />
    <glyph glyph-name="itilde" unicode="&#x129;" horiz-adv-x="466" 
d="M369 0h-351v1208h351v-1208zM294 1464q65 0 65 74h164q0 -238 -151 -238q-49 0 -142 28.5t-120 28.5q-51 0 -51 -59h-172q0 215 148 215q43 0 135.5 -24.5t123.5 -24.5z" />
    <glyph glyph-name="uni1ECB" unicode="&#x1ecb;" horiz-adv-x="466" 
d="M385 1452q0 -92 -51 -151.5t-139 -59.5q-91 0 -142 59.5t-51 151.5q0 90 51 149.5t142 61.5v0q88 0 139 -60.5t51 -150.5zM369 0h-351v1208h351v-1208zM348 -293q0 -57 -42 -99t-101 -42v0q-60 0 -102 42t-42 99q0 60 42 102t102 42q59 0 101 -42t42 -102z" />
    <glyph glyph-name="ograve" unicode="&#xf2;" horiz-adv-x="1175" 
d="M1032 915q66 -137 66 -313q0 -258 -133 -424q-158 -194 -420 -194v0q-252 0 -412 196q-131 164 -131 422q0 178 66 313q69 144 202 226q127 78 275 78q151 0 278 -78q140 -80 209 -226zM747 598q0 143 -59 229q-55 80 -143 80q-84 0 -138.5 -84t-56.5 -225
q0 -135 55.5 -219t139.5 -84q86 0 145.5 83t56.5 220zM672 1294h-170l-162 308h248z" />
    <glyph glyph-name="oacute" unicode="&#xf3;" horiz-adv-x="1175" 
d="M1032 915q66 -137 66 -313q0 -258 -133 -424q-158 -194 -420 -194v0q-252 0 -412 196q-131 164 -131 422q0 178 66 313q69 144 202 226q127 78 275 78q151 0 278 -78q140 -80 209 -226zM747 598q0 143 -59 229q-55 80 -143 80q-84 0 -138.5 -84t-56.5 -225
q0 -135 55.5 -219t139.5 -84q86 0 145.5 83t56.5 220zM756 1602l-162 -308h-170l84 308h248z" />
    <glyph glyph-name="uni1ECF" unicode="&#x1ecf;" horiz-adv-x="1175" 
d="M1032 915q66 -137 66 -313q0 -258 -133 -424q-158 -194 -420 -194v0q-252 0 -412 196q-131 164 -131 422q0 178 66 313q69 144 202 226q127 78 275 78q151 0 278 -78q140 -80 209 -226zM747 598q0 143 -59 229q-55 80 -143 80q-84 0 -138.5 -84t-56.5 -225
q0 -135 55.5 -219t139.5 -84q86 0 145.5 83t56.5 220zM425 1714q58 25 123 25q94 0 157 -50t63 -135q0 -70 -42 -130q-45 -62 -113 -82v-40h-129v126q62 2 91 34q25 26 25 65q0 34 -14 50q-21 23 -66 23q-50 0 -95 -25v139z" />
    <glyph glyph-name="otilde" unicode="&#xf5;" horiz-adv-x="1175" 
d="M1032 915q66 -137 66 -313q0 -258 -133 -424q-158 -194 -420 -194v0q-252 0 -412 196q-131 164 -131 422q0 178 66 313q69 144 202 226q127 78 275 78q151 0 278 -78q140 -80 209 -226zM747 598q0 143 -59 229q-55 80 -143 80q-84 0 -138.5 -84t-56.5 -225
q0 -135 55.5 -219t139.5 -84q86 0 145.5 83t56.5 220zM648 1464q65 0 65 74h164q0 -238 -151 -238q-49 0 -142 28.5t-120 28.5q-51 0 -51 -59h-172q0 215 148 215q43 0 135.5 -24.5t123.5 -24.5z" />
    <glyph glyph-name="uni1ECD" unicode="&#x1ecd;" horiz-adv-x="1175" 
d="M1032 915q66 -137 66 -313q0 -258 -133 -424q-158 -194 -420 -194v0q-252 0 -412 196q-131 164 -131 422q0 178 66 313q69 144 202 226q127 78 275 78q151 0 278 -78q140 -80 209 -226zM747 598q0 143 -59 229q-55 80 -143 80q-84 0 -138.5 -84t-56.5 -225
q0 -135 55.5 -219t139.5 -84q86 0 145.5 83t56.5 220zM693 -293q0 -57 -42 -99t-101 -42v0q-60 0 -102 42t-42 99q0 60 42 102t102 42q59 0 101 -42t42 -102z" />
    <glyph glyph-name="ocircumflex" unicode="&#xf4;" horiz-adv-x="1175" 
d="M1032 915q66 -137 66 -313q0 -258 -133 -424q-158 -194 -420 -194v0q-252 0 -412 196q-131 164 -131 422q0 178 66 313q69 144 202 226q127 78 275 78q151 0 278 -78q140 -80 209 -226zM747 598q0 143 -59 229q-55 80 -143 80q-84 0 -138.5 -84t-56.5 -225
q0 -135 55.5 -219t139.5 -84q86 0 145.5 83t56.5 220zM892 1303h-217l-125 182l-123 -182h-219l233 299h217z" />
    <glyph glyph-name="uni1ED3" unicode="&#x1ed3;" horiz-adv-x="1175" 
d="M1032 915q66 -137 66 -313q0 -258 -133 -424q-158 -194 -420 -194v0q-252 0 -412 196q-131 164 -131 422q0 178 66 313q69 144 202 226q127 78 275 78q151 0 278 -78q140 -80 209 -226zM747 598q0 143 -59 229q-55 80 -143 80q-84 0 -138.5 -84t-56.5 -225
q0 -135 55.5 -219t139.5 -84q86 0 145.5 83t56.5 220zM948 1523h-170l-162 308h248zM892 1303h-217l-125 182l-123 -182h-219l233 299h217z" />
    <glyph glyph-name="uni1ED1" unicode="&#x1ed1;" horiz-adv-x="1175" 
d="M1032 915q66 -137 66 -313q0 -258 -133 -424q-158 -194 -420 -194v0q-252 0 -412 196q-131 164 -131 422q0 178 66 313q69 144 202 226q127 78 275 78q151 0 278 -78q140 -80 209 -226zM747 598q0 143 -59 229q-55 80 -143 80q-84 0 -138.5 -84t-56.5 -225
q0 -135 55.5 -219t139.5 -84q86 0 145.5 83t56.5 220zM1112 1841l-162 -308h-170l84 308h248zM892 1303h-217l-125 182l-123 -182h-219l233 299h217z" />
    <glyph glyph-name="uni1ED5" unicode="&#x1ed5;" horiz-adv-x="1175" 
d="M1032 915q66 -137 66 -313q0 -258 -133 -424q-158 -194 -420 -194v0q-252 0 -412 196q-131 164 -131 422q0 178 66 313q69 144 202 226q127 78 275 78q151 0 278 -78q140 -80 209 -226zM747 598q0 143 -59 229q-55 80 -143 80q-84 0 -138.5 -84t-56.5 -225
q0 -135 55.5 -219t139.5 -84q86 0 145.5 83t56.5 220zM729 1920q58 25 123 25q94 0 157 -50t63 -135q0 -70 -42 -130q-45 -62 -113 -82v-40h-129v126q62 2 91 34q25 26 25 65q0 34 -14 50q-21 23 -66 23q-50 0 -95 -25v139zM892 1303h-217l-125 182l-123 -182h-219l233 299
h217z" />
    <glyph glyph-name="uni1ED7" unicode="&#x1ed7;" horiz-adv-x="1175" 
d="M1032 915q66 -137 66 -313q0 -258 -133 -424q-158 -194 -420 -194v0q-252 0 -412 196q-131 164 -131 422q0 178 66 313q69 144 202 226q127 78 275 78q151 0 278 -78q140 -80 209 -226zM747 598q0 143 -59 229q-55 80 -143 80q-84 0 -138.5 -84t-56.5 -225
q0 -135 55.5 -219t139.5 -84q86 0 145.5 83t56.5 220zM714 1821q65 0 65 74h164q0 -238 -151 -238q-49 0 -141.5 28.5t-120.5 28.5q-51 0 -51 -59h-172q0 215 148 215q44 0 136 -24.5t123 -24.5zM892 1303h-217l-125 182l-123 -182h-219l233 299h217z" />
    <glyph glyph-name="uni1ED9" unicode="&#x1ed9;" horiz-adv-x="1175" 
d="M1032 915q66 -137 66 -313q0 -258 -133 -424q-158 -194 -420 -194v0q-252 0 -412 196q-131 164 -131 422q0 178 66 313q69 144 202 226q127 78 275 78q151 0 278 -78q140 -80 209 -226zM747 598q0 143 -59 229q-55 80 -143 80q-84 0 -138.5 -84t-56.5 -225
q0 -135 55.5 -219t139.5 -84q86 0 145.5 83t56.5 220zM892 1303h-217l-125 182l-123 -182h-219l233 299h217zM693 -293q0 -57 -42 -99t-101 -42v0q-60 0 -102 42t-42 99q0 60 42 102t102 42q59 0 101 -42t42 -102z" />
    <glyph glyph-name="glyph216" unicode="&#xf9;" horiz-adv-x="1042" 
d="M961 0h-349v76q-20 -35 -91.5 -59.5t-155.5 -22.5q-144 2 -246 98q-119 111 -119 293v823h352v-776q0 -65 39 -105t90 -40q107 0 129 143v778h351v-1208zM598 1294h-170l-162 308h248z" />
    <glyph glyph-name="glyph217" unicode="&#xfa;" horiz-adv-x="1042" 
d="M961 0h-349v76q-20 -35 -91.5 -59.5t-155.5 -22.5q-144 2 -246 98q-119 111 -119 293v823h352v-776q0 -65 39 -105t90 -40q107 0 129 143v778h351v-1208zM719 1602l-162 -308h-170l84 308h248z" />
    <glyph glyph-name="uni1EE7" unicode="&#x1ee7;" horiz-adv-x="1046" 
d="M961 0h-349v76q-20 -35 -91.5 -59.5t-155.5 -22.5q-144 2 -246 98q-119 111 -119 293v823h352v-776q0 -65 39 -105t90 -40q107 0 129 143v778h351v-1208zM356 1714q58 25 123 25q94 0 157 -50t63 -135q0 -70 -42 -130q-45 -62 -113 -82v-40h-129v126q62 2 91 34
q25 26 25 65q0 34 -14 50q-21 23 -66 23q-50 0 -95 -25v139z" />
    <glyph glyph-name="utilde" unicode="&#x169;" horiz-adv-x="1046" 
d="M961 0h-349v76q-20 -35 -91.5 -59.5t-155.5 -22.5q-144 2 -246 98q-119 111 -119 293v823h352v-776q0 -65 39 -105t90 -40q107 0 129 143v778h351v-1208zM599 1464q65 0 65 74h164q0 -238 -151 -238q-49 0 -142 28.5t-120 28.5q-51 0 -51 -59h-172q0 215 148 215
q43 0 135.5 -24.5t123.5 -24.5z" />
    <glyph glyph-name="uni1EE5" unicode="&#x1ee5;" horiz-adv-x="1046" 
d="M961 0h-349v76q-20 -35 -91.5 -59.5t-155.5 -22.5q-144 2 -246 98q-119 111 -119 293v823h352v-776q0 -65 39 -105t90 -40q107 0 129 143v778h351v-1208zM671 -293q0 -57 -42 -99t-101 -42v0q-60 0 -102 42t-42 99q0 60 42 102t102 42q59 0 101 -42t42 -102z" />
    <glyph glyph-name="uhorn" unicode="&#x1b0;" horiz-adv-x="1046" 
d="M1026 1159q0 -45 -32.5 -77.5t-78.5 -32.5v0q-47 0 -79.5 32.5t-32.5 77.5q0 46 32.5 79t79.5 33q46 0 78.5 -33t32.5 -79zM961 1008v-1008h-349v76q-20 -35 -91.5 -59.5t-155.5 -22.5q-144 2 -246 98q-119 111 -119 293v823h352v-776q0 -65 39 -105t90 -40
q107 0 129 143v778h157q-7 -23 -7 -49q0 -64 46 -110t113 -46q22 0 42 5z" />
    <glyph glyph-name="uni1EEB" unicode="&#x1eeb;" horiz-adv-x="1042" 
d="M598 1294h-170l-162 308h248zM1026 1159q0 -45 -32.5 -77.5t-78.5 -32.5v0q-47 0 -79.5 32.5t-32.5 77.5q0 46 32.5 79t79.5 33q46 0 78.5 -33t32.5 -79zM961 1008v-1008h-349v76q-20 -35 -91.5 -59.5t-155.5 -22.5q-144 2 -246 98q-119 111 -119 293v823h352v-776
q0 -65 39 -105t90 -40q107 0 129 143v778h157q-7 -23 -7 -49q0 -64 46 -110t113 -46q22 0 42 5z" />
    <glyph glyph-name="uni1EE9" unicode="&#x1ee9;" horiz-adv-x="1042" 
d="M729 1602l-162 -308h-170l84 308h248zM1026 1159q0 -45 -32.5 -77.5t-78.5 -32.5v0q-47 0 -79.5 32.5t-32.5 77.5q0 46 32.5 79t79.5 33q46 0 78.5 -33t32.5 -79zM961 1008v-1008h-349v76q-20 -35 -91.5 -59.5t-155.5 -22.5q-144 2 -246 98q-119 111 -119 293v823h352
v-776q0 -65 39 -105t90 -40q107 0 129 143v778h157q-7 -23 -7 -49q0 -64 46 -110t113 -46q22 0 42 5z" />
    <glyph glyph-name="uni1EED" unicode="&#x1eed;" horiz-adv-x="1046" 
d="M356 1714q58 25 123 25q94 0 157 -50t63 -135q0 -70 -42 -130q-45 -62 -113 -82v-40h-129v126q62 2 91 34q25 26 25 65q0 34 -14 50q-21 23 -66 23q-50 0 -95 -25v139zM1026 1159q0 -45 -32.5 -77.5t-78.5 -32.5v0q-47 0 -79.5 32.5t-32.5 77.5q0 46 32.5 79t79.5 33
q46 0 78.5 -33t32.5 -79zM961 1008v-1008h-349v76q-20 -35 -91.5 -59.5t-155.5 -22.5q-144 2 -246 98q-119 111 -119 293v823h352v-776q0 -65 39 -105t90 -40q107 0 129 143v778h157q-7 -23 -7 -49q0 -64 46 -110t113 -46q22 0 42 5z" />
    <glyph glyph-name="uni1EEF" unicode="&#x1eef;" horiz-adv-x="1046" 
d="M599 1464q65 0 65 74h164q0 -238 -151 -238q-49 0 -142 28.5t-120 28.5q-51 0 -51 -59h-172q0 215 148 215q43 0 135.5 -24.5t123.5 -24.5zM1026 1159q0 -45 -32.5 -77.5t-78.5 -32.5v0q-47 0 -79.5 32.5t-32.5 77.5q0 46 32.5 79t79.5 33q46 0 78.5 -33t32.5 -79z
M961 1008v-1008h-349v76q-20 -35 -91.5 -59.5t-155.5 -22.5q-144 2 -246 98q-119 111 -119 293v823h352v-776q0 -65 39 -105t90 -40q107 0 129 143v778h157q-7 -23 -7 -49q0 -64 46 -110t113 -46q22 0 42 5z" />
    <glyph glyph-name="uni1EF1" unicode="&#x1ef1;" horiz-adv-x="1046" 
d="M671 -293q0 -57 -42 -99t-101 -42v0q-60 0 -102 42t-42 99q0 60 42 102t102 42q59 0 101 -42t42 -102zM1026 1159q0 -45 -32.5 -77.5t-78.5 -32.5v0q-47 0 -79.5 32.5t-32.5 77.5q0 46 32.5 79t79.5 33q46 0 78.5 -33t32.5 -79zM961 1008v-1008h-349v76
q-20 -35 -91.5 -59.5t-155.5 -22.5q-144 2 -246 98q-119 111 -119 293v823h352v-776q0 -65 39 -105t90 -40q107 0 129 143v778h157q-7 -23 -7 -49q0 -64 46 -110t113 -46q22 0 42 5z" />
    <glyph glyph-name="ohorn" unicode="&#x1a1;" horiz-adv-x="1175" 
d="M748 598q0 143 -60 229q-55 80 -143 80q-84 0 -138.5 -84t-56.5 -225q0 -135 55.5 -219t139.5 -84q86 0 145.5 83t57.5 220zM1038 1159q0 -45 -32.5 -77.5t-78.5 -32.5v0q-47 0 -79.5 32.5t-32.5 77.5q0 46 32.5 79t79.5 33q46 0 78.5 -33t32.5 -79zM975 1009
q33 -43 57 -94q66 -137 66 -313q0 -258 -133 -424q-158 -194 -420 -194q-252 0 -412 196q-131 164 -131 422q0 178 66 313q69 144 202 226q127 78 275 78q121 0 227 -50v-11q0 -63 45.5 -109t112.5 -46q24 0 45 6z" />
    <glyph glyph-name="uni1EDD" unicode="&#x1edd;" horiz-adv-x="1175" 
d="M748 598q0 143 -60 229q-55 80 -143 80q-84 0 -138.5 -84t-56.5 -225q0 -135 55.5 -219t139.5 -84q86 0 145.5 83t57.5 220zM672 1294h-170l-162 308h248zM1038 1159q0 -45 -32.5 -77.5t-78.5 -32.5v0q-47 0 -79.5 32.5t-32.5 77.5q0 46 32.5 79t79.5 33q46 0 78.5 -33
t32.5 -79zM975 1009q33 -43 57 -94q66 -137 66 -313q0 -258 -133 -424q-158 -194 -420 -194q-252 0 -412 196q-131 164 -131 422q0 178 66 313q69 144 202 226q127 78 275 78q121 0 227 -50v-11q0 -63 45.5 -109t112.5 -46q24 0 45 6z" />
    <glyph glyph-name="uni1EDB" unicode="&#x1edb;" horiz-adv-x="1175" 
d="M748 598q0 143 -60 229q-55 80 -143 80q-84 0 -138.5 -84t-56.5 -225q0 -135 55.5 -219t139.5 -84q86 0 145.5 83t57.5 220zM756 1602l-162 -308h-170l84 308h248zM1038 1159q0 -45 -32.5 -77.5t-78.5 -32.5v0q-47 0 -79.5 32.5t-32.5 77.5q0 46 32.5 79t79.5 33
q46 0 78.5 -33t32.5 -79zM975 1009q33 -43 57 -94q66 -137 66 -313q0 -258 -133 -424q-158 -194 -420 -194q-252 0 -412 196q-131 164 -131 422q0 178 66 313q69 144 202 226q127 78 275 78q121 0 227 -50v-11q0 -63 45.5 -109t112.5 -46q24 0 45 6z" />
    <glyph glyph-name="uni1EDF" unicode="&#x1edf;" horiz-adv-x="1175" 
d="M748 598q0 143 -60 229q-55 80 -143 80q-84 0 -138.5 -84t-56.5 -225q0 -135 55.5 -219t139.5 -84q86 0 145.5 83t57.5 220zM425 1714q58 25 123 25q94 0 157 -50t63 -135q0 -70 -42 -130q-45 -62 -113 -82v-40h-129v126q62 2 91 34q25 26 25 65q0 34 -14 50
q-21 23 -66 23q-50 0 -95 -25v139zM1038 1159q0 -45 -32.5 -77.5t-78.5 -32.5v0q-47 0 -79.5 32.5t-32.5 77.5q0 46 32.5 79t79.5 33q46 0 78.5 -33t32.5 -79zM975 1009q33 -43 57 -94q66 -137 66 -313q0 -258 -133 -424q-158 -194 -420 -194q-252 0 -412 196
q-131 164 -131 422q0 178 66 313q69 144 202 226q127 78 275 78q121 0 227 -50v-11q0 -63 45.5 -109t112.5 -46q24 0 45 6z" />
    <glyph glyph-name="uni1EE1" unicode="&#x1ee1;" horiz-adv-x="1175" 
d="M748 598q0 143 -60 229q-55 80 -143 80q-84 0 -138.5 -84t-56.5 -225q0 -135 55.5 -219t139.5 -84q86 0 145.5 83t57.5 220zM648 1464q65 0 65 74h164q0 -238 -151 -238q-49 0 -142 28.5t-120 28.5q-51 0 -51 -59h-172q0 215 148 215q43 0 135.5 -24.5t123.5 -24.5z
M1038 1159q0 -45 -32.5 -77.5t-78.5 -32.5v0q-47 0 -79.5 32.5t-32.5 77.5q0 46 32.5 79t79.5 33q46 0 78.5 -33t32.5 -79zM975 1009q33 -43 57 -94q66 -137 66 -313q0 -258 -133 -424q-158 -194 -420 -194q-252 0 -412 196q-131 164 -131 422q0 178 66 313q69 144 202 226
q127 78 275 78q121 0 227 -50v-11q0 -63 45.5 -109t112.5 -46q24 0 45 6z" />
    <glyph glyph-name="uni1EE3" unicode="&#x1ee3;" horiz-adv-x="1175" 
d="M748 598q0 143 -60 229q-55 80 -143 80q-84 0 -138.5 -84t-56.5 -225q0 -135 55.5 -219t139.5 -84q86 0 145.5 83t57.5 220zM694 -293q0 -57 -42 -99t-101 -42v0q-60 0 -102 42t-42 99q0 60 42 102t102 42q59 0 101 -42t42 -102zM1038 1159q0 -45 -32.5 -77.5
t-78.5 -32.5v0q-47 0 -79.5 32.5t-32.5 77.5q0 46 32.5 79t79.5 33q46 0 78.5 -33t32.5 -79zM975 1009q33 -43 57 -94q66 -137 66 -313q0 -258 -133 -424q-158 -194 -420 -194q-252 0 -412 196q-131 164 -131 422q0 178 66 313q69 144 202 226q127 78 275 78q121 0 227 -50
v-11q0 -63 45.5 -109t112.5 -46q24 0 45 6z" />
    <glyph glyph-name="ygrave" unicode="&#x1ef3;" horiz-adv-x="1044" 
d="M963 -45q0 -201 -170 -307q-146 -92 -369 -92q-227 0 -381 86v321q150 -127 363 -127q206 0 206 137v99q-18 -31 -78.5 -52.5t-136.5 -21.5q-159 0 -266 94q-131 117 -131 354v762h356v-774q0 -63 39 -104t90 -41q105 0 127 143v776h351v-1253zM578 1294h-170l-162 308
h248z" />
    <glyph glyph-name="glyph234" unicode="&#xfd;" horiz-adv-x="1044" 
d="M963 -45q0 -201 -170 -307q-146 -92 -369 -92q-227 0 -381 86v321q150 -127 363 -127q206 0 206 137v99q-18 -31 -78.5 -52.5t-136.5 -21.5q-159 0 -266 94q-131 117 -131 354v762h356v-774q0 -63 39 -104t90 -41q105 0 127 143v776h351v-1253zM729 1602l-162 -308h-170
l84 308h248z" />
    <glyph glyph-name="uni1EF7" unicode="&#x1ef7;" horiz-adv-x="1044" 
d="M963 -45q0 -201 -170 -307q-146 -92 -369 -92q-227 0 -381 86v321q150 -127 363 -127q206 0 206 137v99q-18 -31 -78.5 -52.5t-136.5 -21.5q-159 0 -266 94q-131 117 -131 354v762h356v-774q0 -63 39 -104t90 -41q105 0 127 143v776h351v-1253zM356 1714q58 25 123 25
q94 0 157 -50t63 -135q0 -70 -42 -130q-45 -62 -113 -82v-40h-129v126q62 2 91 34q25 26 25 65q0 34 -14 50q-21 23 -66 23q-50 0 -95 -25v139z" />
    <glyph glyph-name="uni1EF9" unicode="&#x1ef9;" horiz-adv-x="1044" 
d="M963 -45q0 -201 -170 -307q-146 -92 -369 -92q-227 0 -381 86v321q150 -127 363 -127q206 0 206 137v99q-18 -31 -78.5 -52.5t-136.5 -21.5q-159 0 -266 94q-131 117 -131 354v762h356v-774q0 -63 39 -104t90 -41q105 0 127 143v776h351v-1253zM599 1464q65 0 65 74h164
q0 -238 -151 -238q-49 0 -142 28.5t-120 28.5q-51 0 -51 -59h-172q0 215 148 215q43 0 135.5 -24.5t123.5 -24.5z" />
    <glyph glyph-name="uni1EF5" unicode="&#x1ef5;" horiz-adv-x="1044" 
d="M992 -293q0 -57 -42 -99t-101 -42v0q-60 0 -102 42t-42 99q0 60 42 102t102 42q59 0 101 -42t42 -102zM699 -399q-118 -45 -275 -45q-227 0 -381 86v321q150 -127 363 -127q206 0 206 137v99q-18 -31 -78.5 -52.5t-136.5 -21.5q-159 0 -266 94q-131 117 -131 354v762h356
v-774q0 -63 39 -104t90 -41q105 0 127 143v776h351v-1253q0 -50 -11 -95q-43 29 -99 29q-78 0 -132 -54t-54 -131q0 -57 32 -103z" />
    <glyph glyph-name="divide" unicode="&#xf7;" horiz-adv-x="1706" 
 />
    <glyph glyph-name="ugrave" horiz-adv-x="582" 
 />
    <glyph glyph-name="uacute" horiz-adv-x="580" 
 />
    <glyph glyph-name="yacute" horiz-adv-x="629" 
 />
    <glyph glyph-name="Ccaron" unicode="&#x10c;" horiz-adv-x="1274" 
 />
    <glyph glyph-name="ccaron" unicode="&#x10d;" horiz-adv-x="922" 
 />
    <glyph glyph-name="Dslash" unicode="&#x110;" horiz-adv-x="1380" 
d="M1354 799q-2 -381 -179.5 -590t-506.5 -209h-537v698h-131v207h131v697h541q332 0 508 -211t174 -592zM930 801q0 200 -69.5 309t-201.5 109l-129 -2v-312h177v-207h-177v-317h129q271 0 271 420z" />
    <glyph glyph-name="dcroat" unicode="&#x111;" horiz-adv-x="1116" 
d="M682 508v194q-29 179 -160 179q-168 0 -166 -279q0 -280 166 -278q131 2 160 184zM682 1480v122l348 76v-1678h-344l-4 66q-70 -72 -201 -72q-186 0 -329 170q-150 178 -152 438q-2 270 131 441t334 171q24 0 47 -2q94 -10 170 -59v134h-221v193h221z" />
    <glyph glyph-name="quoteleft" unicode="&#x2018;" horiz-adv-x="397" 
d="M313 1145h-147l-166 457h262z" />
    <glyph glyph-name="quoteright" unicode="&#x2019;" horiz-adv-x="382" 
d="M313 1602l-166 -457h-147l51 457h262z" />
    <glyph glyph-name="quotedblleft" unicode="&#x201c;" horiz-adv-x="690" 
d="M2 1602l266 -457h148l-152 457h-262zM330 1602l145 -457h148l-31 457h-262z" />
    <glyph glyph-name="quotedblright" unicode="&#x201d;" horiz-adv-x="690" 
d="M621 1602l-267 -457h-147l151 457h263zM293 1602l-146 -457h-147l31 457h262z" />
    <glyph glyph-name="ellipsis" unicode="&#x2026;" horiz-adv-x="1546" 
d="M346 0h-346v367h346v-367zM888 0h-346v367h346v-367zM1430 1h-346v367h346v-367z" />
    </font>
</defs>
</svg>
